<svg xmlns="http://www.w3.org/2000/svg" xmlns:xlink="http://www.w3.org/1999/xlink" width="1080" zoomAndPan="magnify" viewBox="0 0 810 809.999993" height="1080" preserveAspectRatio="xMidYMid meet" version="1.0"><defs><clipPath id="647686d894"><path d="M 383 692 L 449 692 L 449 799.832031 L 383 799.832031 Z M 383 692 " clip-rule="nonzero"/></clipPath><clipPath id="262f1f6537"><path d="M 421 428 L 662 428 L 662 799.832031 L 421 799.832031 Z M 421 428 " clip-rule="nonzero"/></clipPath></defs><path fill="#996553" d="M 598.515625 690.183594 L 587.789062 690.183594 C 587.789062 690.183594 568.835938 644.367188 556.402344 634.757812 L 567.175781 625.304688 L 579.261719 639.898438 L 594.738281 668.664062 Z M 598.515625 690.183594 " fill-opacity="1" fill-rule="nonzero"/><path fill="#ad7760" d="M 583.613281 618.625 L 608.761719 683.894531 L 598.515625 690.183594 C 598.515625 690.183594 580.230469 647.148438 568.878906 627.359375 Z M 583.613281 618.625 " fill-opacity="1" fill-rule="nonzero"/><path fill="#996553" d="M 117.996094 749.78125 L 129.964844 743.253906 C 129.964844 743.253906 141.882812 688.730469 151.070312 670.359375 C 155.179688 662.621094 164.351562 660.308594 173.0625 659.53125 L 176.457031 648.359375 L 145.75 643.523438 C 145.75 643.523438 132.101562 674.59375 126.167969 691.632812 C 117.996094 715.082031 117.996094 749.78125 117.996094 749.78125 Z M 117.996094 749.78125 " fill-opacity="1" fill-rule="nonzero"/><path fill="#ad7760" d="M 117.996094 650.277344 L 105.667969 747.753906 L 117.996094 749.78125 C 117.996094 749.78125 132.816406 686.714844 134.992188 680.953125 C 137.167969 675.191406 143.335938 657.742188 162.554688 657.765625 L 162.554688 650.277344 L 118.1875 641.457031 Z M 117.996094 650.277344 " fill-opacity="1" fill-rule="nonzero"/><g clip-path="url(#647686d894)"><path fill="#ad7760" d="M 383.492188 694.890625 C 383.492188 694.890625 399.035156 698.1875 402.28125 727.410156 C 405.597656 757.328125 407.296875 797.386719 407.296875 797.386719 L 421.683594 799.753906 L 427.667969 769.292969 L 448.882812 692.597656 Z M 383.492188 694.890625 " fill-opacity="1" fill-rule="nonzero"/></g><path fill="#ad7760" d="M 587.789062 585.824219 L 583.613281 618.625 L 445.941406 700.246094 C 441.632812 702.804688 436.5625 703.769531 431.613281 702.976562 L 117.996094 650.277344 L 118.535156 625.285156 Z M 587.789062 585.824219 " fill-opacity="1" fill-rule="nonzero"/><path fill="#b5aba9" d="M 302.496094 326.742188 C 302.496094 326.742188 179.734375 358.484375 140.566406 372.761719 C 101.398438 387.042969 81 396.832031 81.816406 439.257812 C 82.628906 481.6875 83.445312 610.191406 118.535156 625.285156 C 153.625 640.378906 327.433594 556.75 327.433594 556.75 Z M 302.496094 326.742188 " fill-opacity="1" fill-rule="nonzero"/><path fill="#d6d4d4" d="M 135.167969 626.890625 C 144.671875 582.066406 154.792969 450.695312 140.976562 410.703125 C 133.222656 388.265625 97.644531 394.121094 97.644531 394.121094 C 86.785156 403.773438 81.386719 417.039062 81.816406 439.257812 C 82.628906 481.6875 83.445312 610.191406 118.535156 625.285156 C 122.476562 626.980469 128.171875 627.429688 135.167969 626.890625 Z M 135.167969 626.890625 " fill-opacity="1" fill-rule="nonzero"/><path fill="#c1b9b7" d="M 315.601562 439.257812 C 315.601562 439.257812 168.71875 478.421875 142.605469 490.253906 C 116.496094 502.085938 111.191406 524.929688 111.191406 542.472656 C 111.191406 560.015625 121.800781 575.925781 132.816406 580.410156 C 143.832031 584.898438 378.84375 624.46875 400.058594 625.285156 C 421.273438 626.101562 455.546875 599.992188 460.035156 588.164062 C 464.523438 576.332031 569.59375 475.339844 569.59375 475.339844 Z M 315.601562 439.257812 " fill-opacity="1" fill-rule="nonzero"/><path fill="#cec9c8" d="M 488.609375 555.539062 C 433.132812 562.078125 183.816406 522.890625 160.152344 515.546875 C 136.488281 508.203125 131.125 497.082031 131.125 497.082031 C 114.863281 509.621094 111.191406 527.878906 111.191406 542.472656 C 111.191406 560.011719 121.800781 575.925781 132.816406 580.410156 C 143.832031 584.898438 378.84375 624.46875 400.058594 625.285156 C 421.273438 626.101562 455.546875 599.992188 460.035156 588.164062 C 461.472656 584.367188 473.261719 571.402344 488.609375 555.539062 Z M 488.609375 555.539062 " fill-opacity="1" fill-rule="nonzero"/><path fill="#c1b9b7" d="M 311.113281 446.601562 C 311.113281 446.601562 291.527344 440.484375 291.527344 419.675781 C 291.527344 398.871094 306.625 293.621094 311.113281 276.078125 C 315.601562 258.535156 333.960938 243.035156 356.808594 240.992188 C 379.65625 238.953125 561.21875 242.21875 595.085938 271.589844 C 628.949219 300.960938 580.722656 453.625 575.03125 466.570312 C 568.878906 480.566406 530.199219 478.25 484.242188 472.847656 C 408.296875 463.917969 311.113281 446.601562 311.113281 446.601562 Z M 311.113281 446.601562 " fill-opacity="1" fill-rule="nonzero"/><path fill="#b5aba9" d="M 595.085938 271.589844 C 561.21875 242.21875 379.65625 238.953125 356.808594 240.992188 C 351.367188 241.480469 346.1875 242.734375 341.382812 244.59375 C 342.789062 244.675781 490.109375 253.421875 538.78125 268.328125 C 604.050781 288.3125 529.960938 482.558594 529.933594 482.625 C 553.039062 482.703125 569.617188 479.414062 573.460938 470.671875 C 579.152344 457.722656 628.949219 300.960938 595.085938 271.589844 Z M 595.085938 271.589844 " fill-opacity="1" fill-rule="nonzero"/><path fill="#d6d4d4" d="M 132.816406 580.410156 C 132.816406 580.410156 118.535156 582.042969 114.863281 597.546875 C 111.191406 613.046875 114.453125 628.550781 123.839844 631.8125 C 133.222656 635.078125 404.878906 680.964844 409.773438 680.78125 C 414.671875 680.597656 416.738281 626.066406 416.964844 621.800781 C 417.195312 617.535156 132.816406 580.410156 132.816406 580.410156 Z M 132.816406 580.410156 " fill-opacity="1" fill-rule="nonzero"/><path fill="#f7e5dc" d="M 417.984375 271.707031 C 417.984375 271.707031 401.898438 265.394531 395.09375 263.460938 C 388.292969 261.527344 380.480469 269.574219 383.316406 279.644531 C 386.152344 289.714844 381.960938 309.382812 374.078125 324.007812 C 366.195312 338.632812 360.1875 359.613281 354.613281 376.15625 C 349.039062 392.699219 334.621094 409.742188 335.863281 415.621094 C 337.109375 421.496094 364.699219 414.945312 373.449219 416.648438 C 382.203125 418.351562 434.652344 423.371094 450.859375 427.617188 C 467.070312 431.863281 500.753906 429.519531 512.390625 435.265625 C 524.027344 441.007812 528.5625 428.417969 529.542969 418.171875 C 530.519531 407.921875 548.671875 341.140625 550.433594 327.242188 C 552.191406 313.339844 556.675781 304.917969 558.332031 295.796875 C 559.992188 286.671875 557.570312 275.457031 551.308594 273.457031 C 545.042969 271.460938 509.902344 280 500.113281 280.613281 C 490.324219 281.222656 482.121094 287.121094 477.402344 286.039062 C 472.6875 284.953125 457.589844 282.355469 447.484375 280.265625 C 437.375 278.175781 430.886719 269.632812 417.984375 271.707031 Z M 417.984375 271.707031 " fill-opacity="1" fill-rule="nonzero"/><path fill="#efe8e6" d="M 558.332031 295.796875 C 559.992188 286.671875 557.570312 275.457031 551.308594 273.457031 C 551.011719 273.363281 550.652344 273.292969 550.238281 273.246094 C 546.0625 275.28125 540.789062 278.566406 537.238281 283.339844 C 530.535156 292.347656 512.140625 349.847656 508.195312 385.917969 C 505.789062 405.722656 514.027344 412.0625 512.253906 420.214844 C 511.386719 424.207031 510.144531 429.355469 509.882812 434.253906 C 510.804688 434.558594 511.644531 434.894531 512.390625 435.261719 C 524.027344 441.007812 528.5625 428.417969 529.539062 418.171875 C 530.519531 407.921875 548.671875 341.140625 550.429688 327.242188 C 552.191406 313.339844 556.675781 304.917969 558.332031 295.796875 Z M 558.332031 295.796875 " fill-opacity="1" fill-rule="nonzero"/><path fill="#ebab98" d="M 458.566406 447.265625 C 458.566406 447.265625 450.160156 399.257812 368.320312 413.53125 C 305.949219 424.414062 187.332031 451.1875 165.386719 476.121094 C 160.027344 482.3125 145.179688 506.429688 180.554688 513.25 C 215.929688 520.070312 269.964844 517.828125 301.886719 517.300781 C 333.8125 516.773438 473.980469 515.511719 458.566406 447.265625 Z M 458.566406 447.265625 " fill-opacity="1" fill-rule="nonzero"/><path fill="#d7e2f7" d="M 464.160156 458.242188 C 464.160156 458.242188 467.289062 509.40625 344.394531 520.460938 C 221.5 531.519531 163.976562 525.851562 159.660156 484.128906 C 159.488281 471.285156 152.246094 456.546875 230.710938 437.035156 C 309.175781 417.523438 359.070312 401.898438 398.171875 401.109375 C 437.277344 400.324219 464.058594 429.515625 464.160156 458.242188 Z M 464.160156 458.242188 " fill-opacity="1" fill-rule="nonzero"/><path fill="#b5c8e8" d="M 200.6875 485.988281 C 225.773438 472.863281 328.019531 444.714844 328.894531 440.050781 C 329.769531 435.382812 326.265625 419.632812 326.265625 419.632812 C 333.851562 424.882812 339.6875 445.589844 345.8125 441.800781 C 351.9375 438.007812 395.984375 432.464844 395.984375 432.464844 C 395.984375 432.464844 444.847656 442.714844 450.785156 484.785156 C 436.367188 499.070312 406.449219 514.878906 344.394531 520.460938 C 266.300781 527.488281 222.179688 524.886719 190.023438 514.863281 C 188.984375 501.949219 191.3125 490.894531 200.6875 485.988281 Z M 200.6875 485.988281 " fill-opacity="1" fill-rule="nonzero"/><path fill="#ebab98" d="M 186.515625 472.8125 C 171.550781 477.429688 162.882812 493.027344 166.539062 508.246094 C 171.992188 530.953125 180.050781 557.339844 204.390625 627.824219 C 238.042969 725.289062 238.414062 728.902344 252.53125 725.511719 C 264.191406 722.707031 262.011719 707.886719 258.277344 668.5625 C 255.980469 644.390625 248.902344 575.777344 239.683594 541.566406 C 230.46875 507.351562 218.042969 468.09375 193.992188 471.207031 C 191.285156 471.554688 188.800781 472.109375 186.515625 472.8125 Z M 186.515625 472.8125 " fill-opacity="1" fill-rule="nonzero"/><path fill="#d7e2f7" d="M 155.753906 487.71875 C 155.753906 487.71875 179.753906 596.433594 222.953125 685.730469 C 222.953125 685.730469 237.941406 687.164062 261.160156 679.703125 C 261.160156 679.703125 258.035156 605.925781 248.367188 554.152344 C 238.699219 502.378906 217.171875 475.511719 210.628906 462.949219 C 199.804688 442.164062 155.207031 451.066406 155.753906 487.71875 Z M 155.753906 487.71875 " fill-opacity="1" fill-rule="nonzero"/><path fill="#b5c8e8" d="M 206.230469 575.238281 C 200.980469 556.28125 175.601562 499.113281 200.6875 485.988281 C 204.84375 483.8125 211.46875 481.09375 219.628906 478.050781 C 228.828125 493.507812 241.546875 517.632812 248.367188 554.152344 C 258.035156 605.925781 261.160156 679.703125 261.160156 679.703125 C 253.527344 682.15625 246.789062 683.644531 241.175781 684.539062 C 232.210938 657.152344 210.378906 590.226562 206.230469 575.238281 Z M 206.230469 575.238281 " fill-opacity="1" fill-rule="nonzero"/><path fill="#455487" d="M 272.519531 749.605469 L 269.652344 773.691406 C 269.652344 773.691406 262.269531 775.800781 251.308594 773.960938 L 251.660156 754.660156 Z M 272.519531 749.605469 " fill-opacity="1" fill-rule="nonzero"/><path fill="#394778" d="M 251.308594 773.957031 L 245.988281 770.101562 L 245.738281 755.421875 L 251.660156 754.660156 Z M 251.308594 773.957031 " fill-opacity="1" fill-rule="nonzero"/><path fill="#455487" d="M 178.566406 765.273438 C 178.566406 765.273438 178.28125 769.820312 178.542969 771.65625 C 178.800781 773.488281 207.992188 776.304688 225.039062 773.25 C 230.152344 771.960938 243.523438 759.0625 253.109375 755.796875 C 262.695312 752.53125 270.4375 751.84375 271.988281 750.410156 C 273.539062 748.980469 274.226562 740.058594 270.53125 739.082031 Z M 178.566406 765.273438 " fill-opacity="1" fill-rule="nonzero"/><path fill="#ebab98" d="M 245.007812 684.035156 C 245.007812 684.035156 231.046875 684.730469 231.480469 700.820312 C 231.917969 717 229.523438 727.179688 220.210938 736.09375 C 210.894531 745.007812 190.441406 750.332031 185.042969 752.601562 C 179.644531 754.875 175.457031 760.015625 178.566406 765.277344 C 181.675781 770.535156 216.609375 768.273438 224.492188 766.101562 C 230.074219 764.5625 241.253906 753.503906 249.152344 751 C 257.050781 748.496094 267.710938 747.425781 270.101562 741.550781 C 272.492188 735.679688 268.074219 725.726562 264.40625 717.789062 C 260.738281 709.851562 260.960938 697.753906 260.488281 692.929688 C 260.015625 688.101562 255.339844 682.867188 245.007812 684.035156 Z M 245.007812 684.035156 " fill-opacity="1" fill-rule="nonzero"/><path fill="#455487" d="M 242.980469 754.941406 C 242.980469 754.941406 245.035156 743.015625 248.734375 736.957031 C 252.992188 729.976562 261.558594 718.953125 263.222656 714.667969 C 263.222656 714.667969 266.253906 719.625 266.816406 723.160156 C 266.816406 723.160156 258.652344 733.183594 255.710938 738.289062 C 252.773438 743.394531 251.625 747.203125 251.441406 751.792969 C 251.441406 751.792969 245.488281 754.417969 242.980469 754.941406 Z M 242.980469 754.941406 " fill-opacity="1" fill-rule="nonzero"/><path fill="#455487" d="M 199.242188 746.992188 C 199.242188 746.992188 196.527344 762.175781 196.355469 769.625 C 196.355469 769.625 202.789062 770.503906 205.679688 769.871094 C 205.679688 769.871094 208.222656 746.648438 208.71875 743.558594 C 208.71875 743.558594 203.0625 745.230469 199.242188 746.992188 Z M 199.242188 746.992188 " fill-opacity="1" fill-rule="nonzero"/><path fill="#394778" d="M 206.882812 759.019531 C 207.613281 752.519531 208.453125 745.199219 208.71875 743.558594 C 208.71875 743.558594 203.0625 745.230469 199.242188 746.992188 C 199.242188 746.992188 198.859375 749.136719 198.371094 752.214844 C 200.472656 753.640625 204.382812 756.433594 206.882812 759.019531 Z M 206.882812 759.019531 " fill-opacity="1" fill-rule="nonzero"/><path fill="#455487" d="M 196 748.761719 C 196 748.761719 210.398438 757.503906 216.425781 768.683594 C 216.425781 768.683594 223.914062 768.109375 226.863281 765.988281 C 226.863281 765.988281 215.492188 751.707031 204.8125 744.820312 C 204.8125 744.820312 199.210938 746.15625 196 748.761719 Z M 196 748.761719 " fill-opacity="1" fill-rule="nonzero"/><path fill="#f5bcab" d="M 351.171875 319.921875 C 342.464844 328.796875 343.753906 340.414062 342.804688 352.800781 C 341.855469 365.160156 328.015625 396.03125 327.722656 408.363281 C 327.320312 425.253906 333.5625 436.25 352.078125 466.011719 C 370.597656 495.769531 386.703125 525.535156 439.039062 514.273438 C 491.371094 503.011719 480.769531 446.542969 477.238281 429.332031 C 473.890625 413.035156 472.886719 401.457031 454.367188 378.535156 C 450.988281 374.875 449.375 360.476562 449.347656 352.203125 C 449.300781 338.375 446.996094 326.640625 436.183594 318.003906 C 427.054688 310.710938 413.316406 304.765625 392.78125 304.765625 C 369.527344 304.765625 360.261719 310.65625 351.171875 319.921875 Z M 351.171875 319.921875 " fill-opacity="1" fill-rule="nonzero"/><path fill="#d7e2f7" d="M 449.320312 359.652344 C 450.34375 359.558594 451.269531 360.273438 451.421875 361.292969 C 452.042969 365.359375 454.101562 375.386719 459.914062 382.125 C 467.355469 390.753906 476.480469 405.832031 480.769531 439.054688 C 485.058594 472.277344 477.875 498.9375 457.347656 509.191406 C 436.816406 519.445312 404.117188 524.058594 384.671875 509.191406 C 365.222656 494.324219 349.828125 464.535156 344.695312 456.484375 C 339.5625 448.433594 325.449219 430.523438 325.449219 408.714844 C 325.449219 401.980469 333.148438 382.808594 335.972656 373.066406 C 337.914062 366.363281 339.371094 361.238281 340.089844 358.691406 C 340.34375 357.796875 341.316406 357.328125 342.179688 357.679688 C 348.046875 360.0625 372.308594 366.78125 449.320312 359.652344 Z M 449.320312 359.652344 " fill-opacity="1" fill-rule="nonzero"/><path fill="#b5c8e8" d="M 326.660156 419.921875 C 334.054688 425.59375 339.792969 445.523438 345.8125 441.800781 C 351.9375 438.007812 395.984375 432.464844 395.984375 432.464844 C 395.984375 432.464844 465.542969 447.058594 448.761719 512.878906 C 428.523438 520.316406 401.585938 522.125 384.671875 509.191406 C 365.222656 494.324219 349.828125 464.535156 344.695312 456.484375 C 340.472656 449.863281 330.183594 436.566406 326.660156 419.921875 Z M 326.660156 419.921875 " fill-opacity="1" fill-rule="nonzero"/><path fill="#b5c8e8" d="M 338.257812 365.132812 C 339.066406 362.308594 339.691406 360.101562 340.089844 358.691406 C 340.34375 357.796875 341.316406 357.328125 342.179688 357.679688 C 348.046875 360.0625 372.308594 366.78125 449.320312 359.652344 C 450.34375 359.558594 451.269531 360.273438 451.421875 361.292969 C 451.605469 362.472656 451.90625 364.164062 452.386719 366.125 C 439.15625 368.449219 393.925781 374.804688 338.257812 365.132812 Z M 338.257812 365.132812 " fill-opacity="1" fill-rule="nonzero"/><path fill="#f5bcab" d="M 459.273438 505.566406 C 479.316406 487.527344 480.523438 460.503906 459.988281 443.027344 C 448.773438 433.484375 434.085938 427.757812 408.476562 432.898438 C 356.996094 443.230469 327.851562 454.90625 286.941406 468.277344 C 245.671875 481.769531 252.199219 478.289062 233.007812 489.859375 C 213.8125 501.429688 207.007812 518.660156 211.890625 529.035156 C 216.777344 539.40625 215.042969 555.945312 246.917969 552.746094 C 278.792969 549.550781 331.402344 545.359375 363.128906 539.433594 C 384.617188 535.421875 433.605469 528.667969 459.273438 505.566406 Z M 459.273438 505.566406 " fill-opacity="1" fill-rule="nonzero"/><path fill="#d7e2f7" d="M 480.050781 468.460938 C 480.050781 468.460938 493.472656 525 355.203125 543.410156 C 223.332031 560.964844 214.761719 558.699219 202.027344 526.304688 C 186.96875 488.007812 232.660156 479.246094 258.992188 472.488281 C 285.328125 465.730469 367.546875 438.730469 400.976562 429.453125 C 434.410156 420.175781 472.730469 428.238281 480.050781 468.460938 Z M 480.050781 468.460938 " fill-opacity="1" fill-rule="nonzero"/><path fill="#b5c8e8" d="M 355.203125 543.410156 C 307.550781 549.753906 276 553.507812 254.535156 554.191406 C 257.933594 533.585938 273.03125 513.550781 273.03125 513.550781 C 273.03125 513.550781 281.34375 522.082031 289.4375 540.019531 C 292.472656 546.742188 333.792969 544.800781 363.613281 542.210938 C 360.875 542.625 358.074219 543.027344 355.203125 543.410156 Z M 355.203125 543.410156 " fill-opacity="1" fill-rule="nonzero"/><path fill="#f5bcab" d="M 202.121094 516.496094 C 202.121094 516.496094 219.878906 580.941406 229.777344 612.355469 C 239.679688 643.769531 259.363281 699.414062 263.355469 717.886719 C 267.34375 736.355469 277.183594 730.847656 281.132812 728.746094 C 285.082031 726.644531 287.71875 719.59375 288.082031 702.132812 C 288.445312 684.675781 290.449219 672.476562 289.910156 644.054688 C 289.375 615.636719 281.808594 538.835938 263.84375 509.226562 C 243.675781 475.992188 196.890625 484.46875 202.121094 516.496094 Z M 202.121094 516.496094 " fill-opacity="1" fill-rule="nonzero"/><path fill="#d7e2f7" d="M 232.773438 485.550781 C 232.773438 485.550781 266.90625 486.425781 276.96875 521.863281 C 287.03125 557.300781 292.285156 615.488281 291.410156 678.492188 C 291.410156 678.492188 267.78125 686.367188 252.464844 685.492188 C 252.464844 685.492188 208.273438 562.113281 200.394531 521.425781 C 199.082031 505.238281 201.269531 485.113281 232.773438 485.550781 Z M 232.773438 485.550781 " fill-opacity="1" fill-rule="nonzero"/><path fill="#455487" d="M 308.339844 753.574219 L 301.894531 787.902344 C 301.894531 787.902344 299.457031 788.476562 293.320312 787.972656 C 287.1875 787.472656 283.511719 786.398438 283.511719 786.398438 L 285.472656 762.65625 Z M 308.339844 753.574219 " fill-opacity="1" fill-rule="nonzero"/><path fill="#394778" d="M 283.511719 786.398438 L 276.386719 781.566406 L 277.519531 767.851562 L 285.472656 762.65625 Z M 283.511719 786.398438 " fill-opacity="1" fill-rule="nonzero"/><path fill="#455487" d="M 206.449219 773.902344 L 205.988281 779.492188 C 205.882812 780.769531 206.683594 781.945312 207.910156 782.320312 C 214.242188 784.242188 233.976562 789.382812 254.601562 785.894531 C 261.363281 784.410156 277.082031 769.9375 286.078125 766.070312 C 292.933594 763.125 302.175781 758.722656 306.183594 756.800781 C 307.4375 756.195312 308.113281 754.945312 308.339844 753.574219 C 308.757812 751.027344 309.042969 746.800781 307.925781 743.242188 Z M 206.449219 773.902344 " fill-opacity="1" fill-rule="nonzero"/><path fill="#f5bcab" d="M 272.59375 684.835938 C 272.59375 684.835938 257.417969 682.113281 258.667969 703.460938 C 259.914062 724.808594 257.722656 734.1875 247.484375 744.503906 C 237.246094 754.820312 222.402344 758.742188 213.960938 762.300781 C 208.136719 764.757812 205.011719 769.890625 206.449219 773.902344 C 207.890625 777.914062 229.320312 782.144531 244.914062 779.878906 C 260.507812 777.613281 271.039062 768.027344 278.378906 762.785156 C 285.71875 757.542969 305.414062 750.65625 307.726562 744.117188 C 310.035156 737.578125 303.019531 726.027344 297.5 720.53125 C 292.78125 715.835938 288.484375 709.082031 288.652344 698.476562 C 288.820312 687.867188 284.375 683.671875 272.59375 684.835938 Z M 272.59375 684.835938 " fill-opacity="1" fill-rule="nonzero"/><path fill="#455487" d="M 272.996094 767.921875 C 272.996094 767.921875 273.199219 759.042969 275.082031 749.105469 C 276.734375 740.390625 281.867188 723.117188 292.675781 714.4375 C 292.675781 714.4375 295.226562 716.40625 297.5 720.53125 C 297.5 720.53125 289.4375 728.105469 285.246094 740.242188 C 281.054688 752.382812 282.164062 763.09375 282.164062 763.09375 C 282.164062 763.09375 279.320312 768.574219 272.996094 767.921875 Z M 272.996094 767.921875 " fill-opacity="1" fill-rule="nonzero"/><path fill="#455487" d="M 237.492188 752.128906 C 237.492188 752.128906 235.507812 765.125 235.519531 781.058594 C 235.519531 781.058594 227.308594 782.378906 222.21875 779.707031 C 222.21875 779.707031 222.21875 763.640625 223.851562 758.328125 C 223.851562 758.328125 233.082031 753.023438 237.492188 752.128906 Z M 237.492188 752.128906 " fill-opacity="1" fill-rule="nonzero"/><path fill="#394778" d="M 223.851562 758.328125 C 223.625 759.0625 223.433594 760 223.265625 761.070312 C 225.410156 761.859375 232.429688 764.613281 235.929688 767.996094 C 236.503906 758.59375 237.492188 752.128906 237.492188 752.128906 C 233.082031 753.023438 223.851562 758.328125 223.851562 758.328125 Z M 223.851562 758.328125 " fill-opacity="1" fill-rule="nonzero"/><path fill="#455487" d="M 222.0625 759.1875 C 222.0625 759.1875 237.089844 762.066406 248.128906 779.566406 C 248.128906 779.566406 256.121094 779.289062 259.359375 775.4375 C 259.359375 775.4375 252.492188 761.730469 235.027344 752.867188 C 235.027344 752.867188 227.53125 754.058594 222.0625 759.1875 Z M 222.0625 759.1875 " fill-opacity="1" fill-rule="nonzero"/><path fill="#f5bcab" d="M 313.734375 207.761719 C 314.460938 196.746094 319.410156 186.078125 330.617188 182.75 C 345 178.480469 360.125 186.675781 364.394531 201.058594 C 365.285156 204.046875 365.628906 207.066406 365.496094 210.015625 C 365.464844 210.710938 365.40625 211.402344 365.324219 212.085938 C 364.199219 225.292969 359.476562 276.824219 350.675781 322.386719 C 350.097656 330.140625 344.832031 337.09375 336.933594 339.441406 C 326.726562 342.472656 315.992188 336.65625 312.960938 326.449219 C 311.773438 322.453125 311 231.199219 313.734375 207.761719 Z M 313.734375 207.761719 " fill-opacity="1" fill-rule="nonzero"/><path fill="#b35d73" d="M 363.003906 251.484375 C 362.125 264.402344 353.332031 310.992188 351.617188 320.519531 C 349.925781 329.851562 346.851562 334.9375 342.167969 338.84375 C 332.914062 347.1875 312.808594 338.734375 310.714844 331.054688 C 308.601562 322.289062 311.171875 292.03125 310.988281 275.96875 C 310.875 266.972656 310.871094 256.074219 311.019531 246.71875 C 311.753906 228.585938 310.132812 205.980469 317.25 192.414062 C 320.058594 187.058594 324.484375 183.253906 330.574219 181.472656 C 335.609375 180.128906 351.378906 177.613281 361.441406 191.464844 C 371.882812 207.5 363.402344 239.625 363.003906 251.484375 Z M 363.003906 251.484375 " fill-opacity="1" fill-rule="nonzero"/><path fill="#a35065" d="M 363.003906 251.484375 C 362.128906 264.394531 353.328125 310.996094 351.617188 320.519531 C 349.925781 329.851562 346.851562 334.9375 342.167969 338.84375 C 332.914062 347.1875 312.808594 338.734375 310.714844 331.054688 C 310.179688 303.089844 311.230469 273.914062 311.019531 246.71875 C 312.777344 250.234375 314.59375 253.019531 315.515625 251.988281 C 317.6875 249.601562 326.242188 225.972656 328.058594 221.269531 C 329.863281 216.558594 332.410156 201.6875 332.410156 201.6875 C 332.410156 201.6875 348.539062 195.875 363.160156 194.363281 C 370.652344 210.816406 363.546875 240.355469 363.003906 251.484375 Z M 363.003906 251.484375 " fill-opacity="1" fill-rule="nonzero"/><path fill="#a35065" d="M 253.847656 290.449219 C 249.578125 286.296875 243.5 263.003906 273.902344 254.484375 L 286.796875 265.011719 L 271.820312 292.996094 Z M 253.847656 290.449219 " fill-opacity="1" fill-rule="nonzero"/><path fill="#e09282" d="M 221.359375 286.601562 C 221.359375 286.601562 219.753906 295.292969 217.804688 295.996094 C 215.855469 296.695312 214.949219 294.671875 214.371094 291.816406 C 213.792969 288.964844 214.050781 275.023438 214.597656 272.824219 C 215.148438 270.625 226.253906 264.644531 226.253906 264.644531 C 226.253906 264.644531 228.164062 261 229.695312 258.730469 C 231.226562 256.457031 239.140625 256.863281 239.140625 256.863281 Z M 221.359375 286.601562 " fill-opacity="1" fill-rule="nonzero"/><path fill="#f5bcab" d="M 283.433594 275.742188 C 282.421875 275.351562 278.855469 272.519531 275.730469 270.195312 C 259.199219 263.308594 246.546875 253.101562 238.160156 256.257812 C 235.730469 257.160156 220.617188 266.75 219.472656 268.335938 C 218.328125 269.921875 215.027344 277.472656 214.304688 279.078125 C 213.578125 280.683594 210.644531 285.863281 209.882812 287.292969 C 209.125 288.722656 208.070312 292.332031 210.882812 292.292969 C 213.691406 292.253906 218.519531 286.070312 218.519531 286.070312 C 218.628906 286.097656 218.742188 286.109375 218.855469 286.125 C 219.066406 275.851562 229.234375 265.914062 240.105469 266.113281 C 240.75 266.550781 241.132812 267.375 241.410156 268.347656 C 244.253906 269.042969 246.558594 272.179688 246.542969 274.601562 C 253.070312 275.679688 271.535156 292.039062 271.582031 292.039062 C 274.644531 293.394531 281.347656 293.300781 284.34375 289.066406 C 287.34375 284.832031 288.078125 277.539062 283.433594 275.742188 Z M 283.433594 275.742188 " fill-opacity="1" fill-rule="nonzero"/><path fill="#f5bcab" d="M 218.855469 286.125 C 223.605469 286.722656 229.144531 276.949219 229.773438 276.515625 C 230.414062 276.074219 235.207031 269.449219 239.0625 268.367188 C 239.863281 268.144531 240.65625 268.164062 241.410156 268.347656 C 241.132812 267.375 240.75 266.550781 240.105469 266.113281 C 229.234375 265.914062 219.066406 275.851562 218.855469 286.125 Z M 218.855469 286.125 " fill-opacity="1" fill-rule="nonzero"/><path fill="#e09282" d="M 218.292969 281.03125 C 219.34375 278.480469 220.363281 275.921875 221.4375 273.371094 C 222.703125 269.152344 226.199219 266.417969 229.617188 263.957031 C 230.769531 263.207031 231.953125 262.175781 233.199219 261.699219 C 231.40625 263.777344 229.203125 265.617188 227.257812 267.546875 C 222.828125 271.011719 221.394531 276.488281 218.921875 281.308594 C 218.191406 282.667969 217.566406 283.949219 217.425781 285.164062 C 217.285156 286.378906 217.160156 283.382812 218.292969 281.03125 Z M 218.292969 281.03125 " fill-opacity="1" fill-rule="nonzero"/><path fill="#242c61" d="M 261.144531 237.285156 L 221.179688 295.140625 C 220.398438 296.273438 218.847656 296.554688 217.714844 295.773438 C 216.585938 294.992188 216.300781 293.441406 217.082031 292.3125 L 257.046875 234.457031 C 257.828125 233.324219 259.378906 233.042969 260.511719 233.824219 C 261.640625 234.601562 261.925781 236.152344 261.144531 237.285156 Z M 261.144531 237.285156 " fill-opacity="1" fill-rule="nonzero"/><path fill="#f5bcab" d="M 245.378906 266.929688 C 244.980469 265.152344 242.613281 267.117188 242.617188 267.164062 C 242.960938 272.980469 234.066406 275.167969 230.109375 277.53125 C 224.863281 280.660156 224.308594 284.050781 226.035156 285.125 C 227.761719 286.195312 234.207031 283.121094 239.753906 281.289062 C 247.488281 279.070312 245.640625 287.511719 259.894531 280.476562 C 259.882812 280.195312 265.707031 282.523438 265.667969 282.25 C 265.925781 274.707031 251.984375 267.320312 245.378906 266.929688 Z M 245.378906 266.929688 " fill-opacity="1" fill-rule="nonzero"/><path fill="#f5bcab" d="M 219.835938 287.0625 C 221.171875 286.957031 222.398438 286.039062 223.488281 284.765625 C 226.292969 281.480469 228.167969 275.816406 228.546875 275.417969 C 229.085938 274.855469 237.246094 263.410156 236.523438 263.117188 C 225.84375 265.15625 213.101562 286.929688 219.835938 287.0625 Z M 219.835938 287.0625 " fill-opacity="1" fill-rule="nonzero"/><path fill="#f5bcab" d="M 273 269.339844 C 279.597656 270.214844 325.734375 299.757812 331.316406 303.363281 C 336.898438 306.964844 341.039062 320.28125 335.789062 329.773438 C 330.539062 339.261719 316.972656 339.851562 307.476562 331 C 293.109375 316.890625 267.398438 290.78125 264.351562 285.828125 C 261.304688 280.878906 263.199219 276.535156 263.988281 275.125 C 264.777344 273.714844 266.402344 268.464844 273 269.339844 Z M 273 269.339844 " fill-opacity="1" fill-rule="nonzero"/><path fill="#b35d73" d="M 340.507812 339.265625 C 331.78125 347.648438 321.996094 344.457031 311.875 339.265625 C 310.839844 338.734375 309.421875 337.8125 307.691406 336.566406 C 292.570312 325.71875 254.378906 291.042969 253.859375 290.457031 C 263.269531 293.640625 291.011719 282.667969 273.914062 254.496094 C 274.371094 254.804688 289.476562 264.902344 304.878906 276.882812 C 320.394531 288.9375 341.597656 308.257812 344.25 314.167969 C 346.894531 320.089844 349.238281 330.875 340.507812 339.265625 Z M 340.507812 339.265625 " fill-opacity="1" fill-rule="nonzero"/><path fill="#a35065" d="M 340.507812 339.265625 C 331.78125 347.648438 321.996094 344.457031 311.875 339.265625 C 310.839844 338.734375 309.421875 337.8125 307.691406 336.566406 C 313.960938 326.277344 318.566406 307.578125 304.878906 276.882812 C 320.394531 288.9375 341.597656 308.257812 344.25 314.167969 C 346.894531 320.089844 349.238281 330.875 340.507812 339.265625 Z M 340.507812 339.265625 " fill-opacity="1" fill-rule="nonzero"/><path fill="#f5bcab" d="M 335.640625 307.59375 C 335.640625 307.59375 323.328125 299.253906 321.398438 287.128906 C 319.464844 275.007812 328.261719 242.742188 330.394531 224.015625 C 332.523438 205.292969 323.472656 196.300781 321.695312 186.929688 C 321.695312 186.929688 341.261719 171.710938 384.316406 166.554688 C 384.316406 166.554688 410.546875 168 435.644531 173.242188 C 456.125 177.523438 463.289062 185.789062 467.140625 192.34375 C 470.996094 198.898438 470.121094 217.574219 464.015625 236.632812 C 457.910156 255.691406 452.421875 272.414062 451.273438 292.730469 C 450.71875 302.546875 449.359375 337.59375 449.367188 360.5625 C 449.367188 360.5625 450.15625 372.789062 401.136719 382.402344 C 352.113281 392.019531 340.175781 363.039062 340.175781 363.039062 C 338.933594 344.117188 335.640625 307.59375 335.640625 307.59375 Z M 335.640625 307.59375 " fill-opacity="1" fill-rule="nonzero"/><path fill="#f5bcab" d="M 358.824219 175.453125 C 358.824219 175.453125 352.902344 127.105469 352.902344 127.105469 C 351.519531 117.5625 356.46875 107.855469 365.675781 103.621094 C 376.878906 98.460938 390.144531 103.363281 395.304688 114.570312 C 396.003906 116.09375 396.519531 117.65625 396.859375 119.230469 C 396.859375 119.230469 410.304688 169.859375 410.304688 169.859375 C 410.40625 170.210938 410.792969 171.824219 410.792969 171.824219 C 413.691406 183.785156 407.644531 195.660156 396.039062 201 C 382.855469 207.070312 367.832031 201.878906 361.765625 188.699219 C 359.875 184.589844 359.347656 180.089844 358.824219 175.453125 Z M 358.824219 175.453125 " fill-opacity="1" fill-rule="nonzero"/><path fill="#ebab98" d="M 352.902344 127.105469 C 351.519531 117.5625 356.46875 107.855469 365.675781 103.621094 C 376.878906 98.460938 390.144531 103.363281 395.304688 114.570312 C 396.003906 116.09375 396.519531 117.65625 396.859375 119.234375 C 396.859375 119.234375 397.558594 121.863281 397.558594 121.863281 C 391.710938 145.699219 376.800781 165.335938 358.492188 172.730469 Z M 352.902344 127.105469 " fill-opacity="1" fill-rule="nonzero"/><path fill="#9c4040" d="M 311.734375 100.707031 C 311.757812 103.453125 311.5625 106.363281 312.179688 109.582031 C 313.546875 116.707031 316.886719 121.585938 320.445312 126.707031 C 324.003906 131.828125 318.285156 137.398438 321.179688 148.777344 C 324.070312 160.15625 331.585938 159.753906 331.585938 159.753906 C 323.929688 154.222656 323.871094 140.582031 325.957031 135.0625 C 328.042969 129.542969 329.433594 125.480469 326.714844 120.585938 C 324.242188 116.132812 326.5625 112.621094 328.0625 111.441406 C 324.441406 106.410156 318.082031 103.042969 311.734375 100.707031 Z M 311.734375 100.707031 " fill-opacity="1" fill-rule="nonzero"/><path fill="#f5bcab" d="M 334.609375 31.871094 C 334.609375 31.871094 287.566406 46.191406 305.792969 97.226562 C 324.015625 148.261719 340.085938 171.292969 360.511719 163.878906 C 380.9375 156.460938 401.125 127.769531 402.328125 95.828125 C 403.535156 63.886719 379.40625 18.1875 334.609375 31.871094 Z M 334.609375 31.871094 " fill-opacity="1" fill-rule="nonzero"/><path fill="#192b4f" d="M 344.222656 108.128906 C 344.789062 110.648438 346.839844 112.328125 348.796875 111.886719 C 350.757812 111.441406 351.882812 109.042969 351.3125 106.523438 C 350.742188 104.007812 348.691406 102.324219 346.734375 102.769531 C 344.777344 103.210938 343.652344 105.613281 344.222656 108.128906 Z M 344.222656 108.128906 " fill-opacity="1" fill-rule="nonzero"/><path fill="#192b4f" d="M 317.785156 115.34375 C 318.355469 117.863281 320.402344 119.546875 322.359375 119.101562 C 324.320312 118.660156 325.445312 116.257812 324.875 113.742188 C 324.304688 111.222656 322.257812 109.542969 320.296875 109.984375 C 318.339844 110.425781 317.214844 112.828125 317.785156 115.34375 Z M 317.785156 115.34375 " fill-opacity="1" fill-rule="nonzero"/><path fill="#ebab98" d="M 344.835938 147.394531 C 342.492188 148.078125 340.441406 148.207031 340.320312 148.210938 C 339.800781 148.242188 339.359375 147.847656 339.328125 147.332031 C 339.300781 146.816406 339.691406 146.375 340.210938 146.34375 C 340.246094 146.339844 344.125 146.09375 347.035156 144.5 C 347.492188 144.25 348.058594 144.417969 348.308594 144.871094 C 348.554688 145.328125 348.390625 145.894531 347.9375 146.144531 C 346.9375 146.691406 345.859375 147.09375 344.835938 147.394531 Z M 344.835938 147.394531 " fill-opacity="1" fill-rule="nonzero"/><path fill="#e09282" d="M 351.753906 139.617188 C 341.5625 144.628906 333.257812 143.992188 332.871094 143.960938 C 332.324219 143.914062 331.917969 143.433594 331.964844 142.886719 C 332.011719 142.339844 332.492188 141.933594 333.039062 141.980469 C 333.140625 141.988281 342.96875 142.71875 354.023438 136.121094 C 354.492188 135.839844 355.105469 135.996094 355.390625 136.464844 C 355.671875 136.9375 355.515625 137.546875 355.042969 137.828125 C 353.929688 138.492188 352.832031 139.085938 351.753906 139.617188 Z M 351.753906 139.617188 " fill-opacity="1" fill-rule="nonzero"/><path fill="#ebab98" d="M 344.207031 122.148438 C 344.207031 122.148438 344.789062 118.070312 353.621094 115.71875 C 360.800781 113.804688 366.480469 113.332031 367.703125 117.796875 C 369.84375 123.429688 343.015625 132.128906 344.207031 122.148438 Z M 344.207031 122.148438 " fill-opacity="1" fill-rule="nonzero"/><path fill="#ebab98" d="M 329.433594 126.941406 C 328.285156 122.746094 323.238281 123.164062 316.675781 124.820312 C 318.132812 128.09375 319.585938 131.164062 321.035156 134.046875 C 326.128906 132.210938 330.332031 129.304688 329.433594 126.941406 Z M 329.433594 126.941406 " fill-opacity="1" fill-rule="nonzero"/><path fill="#b04545" d="M 338.34375 96.53125 C 338.34375 96.53125 336.558594 97.027344 336.945312 98.195312 C 337.335938 99.359375 338.132812 101.019531 338.984375 101.074219 C 339.839844 101.125 347.003906 97.976562 351.660156 96.816406 C 355.234375 95.921875 361.949219 95.121094 362.078125 94.625 C 362.210938 94.128906 359.292969 92.738281 354.96875 93.054688 C 351.296875 93.320312 342.824219 94.613281 338.34375 96.53125 Z M 338.34375 96.53125 " fill-opacity="1" fill-rule="nonzero"/><path fill="#b04545" d="M 310.449219 109.398438 C 310.449219 109.398438 308.757812 110.613281 308.289062 109.605469 C 307.683594 108.3125 313.199219 104.1875 322.921875 101.402344 C 325.816406 100.726562 325.980469 103.132812 325.804688 104.898438 C 325.640625 106.527344 322.386719 105.367188 310.449219 109.398438 Z M 310.449219 109.398438 " fill-opacity="1" fill-rule="nonzero"/><path fill="#e09282" d="M 338.917969 132.738281 C 338.253906 132.933594 337.484375 133.101562 336.71875 133.152344 L 336.421875 133.171875 C 335.359375 133.25 334.03125 133.347656 333.074219 132.375 C 332.269531 131.558594 331.980469 130.230469 332.15625 128.195312 C 333.40625 114.035156 331.019531 109.085938 330.996094 109.035156 C 330.707031 108.464844 330.941406 107.769531 331.511719 107.484375 C 332.082031 107.199219 332.773438 107.429688 333.0625 108 C 333.171875 108.222656 335.765625 113.589844 334.460938 128.398438 C 334.304688 130.179688 334.617188 130.648438 334.71875 130.75 C 334.929688 130.964844 335.632812 130.914062 336.253906 130.867188 C 336.359375 130.859375 336.464844 130.851562 336.570312 130.84375 C 338.15625 130.742188 339.882812 129.921875 339.902344 129.914062 C 340.476562 129.636719 341.167969 129.878906 341.441406 130.453125 C 341.71875 131.027344 341.480469 131.71875 340.902344 131.996094 C 340.851562 132.019531 340.027344 132.414062 338.917969 132.738281 Z M 338.917969 132.738281 " fill-opacity="1" fill-rule="nonzero"/><path fill="#b54c4c" d="M 349.054688 26.992188 C 349.054688 26.992188 351.398438 18.15625 361.378906 17.519531 C 361.378906 17.519531 368.554688 10.144531 378.359375 11.675781 C 388.167969 13.203125 392.738281 18.773438 397.042969 25.03125 C 401.347656 31.289062 403.410156 30.371094 410.167969 34.019531 C 416.925781 37.667969 419.730469 44.402344 418.605469 52.125 C 417.480469 59.851562 413.832031 64.894531 420.5 68.773438 C 427.167969 72.648438 433.996094 76.453125 432.09375 85.855469 C 430.195312 95.253906 426.6875 102.328125 435.542969 107.699219 C 435.542969 107.699219 429.53125 109.996094 426.726562 106.683594 C 423.917969 103.367188 419.527344 100.761719 418.714844 96.371094 C 417.902344 91.980469 415.148438 90.921875 415.148438 90.921875 C 415.148438 90.921875 412.417969 101.449219 420.484375 108.890625 C 420.484375 108.890625 417.222656 112.242188 413.570312 110.445312 C 409.917969 108.648438 407.960938 105.527344 404.078125 103.640625 C 400.199219 101.757812 349.109375 27.539062 349.054688 26.992188 Z M 349.054688 26.992188 " fill-opacity="1" fill-rule="nonzero"/><path fill="#9c4040" d="M 351.117188 30.128906 C 360.339844 28.113281 367.296875 27.1875 367.296875 27.1875 C 367.296875 27.1875 376.347656 26.136719 383.339844 27.585938 C 390.335938 29.035156 405.1875 39.683594 409.722656 54.324219 C 414.253906 68.96875 415.144531 79.878906 414.996094 83.117188 C 414.851562 86.355469 420.539062 89.773438 421.589844 91.6875 C 422.636719 93.601562 426.953125 107.367188 435.542969 107.699219 C 435.542969 107.699219 429.53125 109.996094 426.726562 106.683594 C 423.921875 103.367188 419.527344 100.761719 418.714844 96.371094 C 417.902344 91.980469 415.148438 90.921875 415.148438 90.921875 C 415.148438 90.921875 412.421875 101.449219 420.484375 108.890625 C 420.484375 108.890625 417.222656 112.242188 413.570312 110.445312 C 409.917969 108.648438 407.960938 105.527344 404.078125 103.640625 C 400.664062 101.984375 360.703125 44.328125 351.117188 30.128906 Z M 351.117188 30.128906 " fill-opacity="1" fill-rule="nonzero"/><path fill="#b54c4c" d="M 302.851562 86.871094 C 302.851562 86.871094 295.828125 73.355469 303.78125 56.894531 C 309.203125 46.105469 326.675781 28.582031 346.285156 24.796875 C 352.738281 23.066406 364.839844 27.003906 364.839844 27.003906 C 364.839844 27.003906 386.445312 25.566406 397.542969 41.539062 C 408.644531 57.507812 413.835938 75.160156 411.09375 89.496094 C 408.347656 103.832031 402.847656 113.691406 402.640625 120.058594 C 402.429688 126.425781 401.289062 131.726562 400.40625 132.308594 C 399.523438 132.890625 393.980469 118.96875 391.898438 115.144531 C 389.816406 111.320312 384.246094 104.332031 380.859375 100.136719 C 377.46875 95.941406 376.257812 95.40625 374.878906 96.222656 C 373.496094 97.039062 370.558594 100.917969 373.453125 105.714844 C 376.347656 110.507812 378.570312 112.941406 376.6875 118.53125 C 374.800781 124.121094 375.355469 137.753906 383.203125 143.003906 C 383.203125 143.003906 375.710938 143.679688 372.40625 132.410156 C 369.105469 121.144531 374.058594 118.179688 370.316406 113.191406 C 366.578125 108.203125 360.15625 102.316406 358.527344 95.246094 C 356.902344 88.175781 359.339844 82.449219 354.457031 77 C 349.578125 71.550781 336.890625 83.683594 318.761719 67.179688 C 317.949219 66.210938 304.238281 76.765625 302.851562 86.871094 Z M 302.851562 86.871094 " fill-opacity="1" fill-rule="nonzero"/><path fill="#9c4040" d="M 321.523438 59.964844 C 329.632812 42.757812 346.542969 31.128906 364.839844 27.003906 C 346.066406 29.386719 328.074219 41.875 321.523438 59.964844 Z M 321.523438 59.964844 " fill-opacity="1" fill-rule="nonzero"/><path fill="#f5bcab" d="M 374.730469 104.347656 C 374.730469 104.347656 372.441406 89.183594 382.375 87.054688 C 392.308594 84.921875 392.523438 102.222656 391.5 107.457031 C 390.28125 113.683594 378.25 121.945312 374.730469 104.347656 Z M 374.730469 104.347656 " fill-opacity="1" fill-rule="nonzero"/><path fill="#e09282" d="M 386.648438 96.585938 C 384.414062 97.171875 383.023438 98.996094 382.246094 100.433594 C 381.9375 98.117188 382.238281 95.621094 384.136719 93.796875 C 384.425781 93.519531 384.4375 93.054688 384.15625 92.761719 C 383.878906 92.472656 383.414062 92.464844 383.121094 92.742188 C 377.652344 97.996094 382.945312 107.144531 383.171875 107.53125 C 383.375 107.878906 383.824219 107.996094 384.191406 107.78125 C 384.523438 107.570312 384.632812 107.132812 384.433594 106.789062 C 384.410156 106.753906 383.445312 105.082031 382.777344 102.847656 C 382.796875 102.804688 382.828125 102.765625 382.839844 102.71875 C 382.851562 102.679688 384.03125 98.78125 387.019531 98 C 387.410156 97.898438 387.644531 97.5 387.542969 97.109375 C 387.441406 96.71875 387.039062 96.484375 386.648438 96.585938 Z M 386.648438 96.585938 " fill-opacity="1" fill-rule="nonzero"/><path fill="#455487" d="M 410.078125 169.019531 C 410.078125 169.019531 408.078125 178.007812 381.980469 186.039062 C 370.417969 189.597656 357.578125 182.777344 358.320312 171.363281 C 358.320312 171.363281 347.191406 172.550781 338.445312 176.847656 C 329.699219 181.148438 322.289062 185.742188 320.953125 186.929688 C 319.617188 188.113281 329.402344 206.9375 329.847656 216.425781 C 330.292969 225.910156 324.214844 254.667969 321.25 269.488281 C 318.285156 284.3125 319.175781 298.246094 334.445312 307.878906 C 334.445312 307.878906 336.519531 341.230469 336.964844 349.828125 C 337.410156 358.425781 336.519531 365.390625 338.296875 368.800781 C 340.078125 372.210938 357.421875 388.960938 391.371094 385.105469 C 425.316406 381.253906 451.410156 369.097656 456.746094 360.648438 C 458.523438 356.945312 455.113281 343.75 453.039062 334.859375 C 450.964844 325.964844 452.445312 288.316406 453.78125 278.679688 C 455.113281 269.046875 468.753906 230.804688 469.9375 213.164062 C 471.125 195.523438 466.675781 182.183594 466.675781 182.183594 C 466.675781 182.183594 440.617188 169.90625 410.078125 169.019531 Z M 410.078125 169.019531 " fill-opacity="1" fill-rule="nonzero"/><path fill="#374778" d="M 334.441406 307.878906 C 338.460938 311.34375 344.71875 311.542969 349.492188 309.570312 C 344.730469 307.496094 339.558594 307.46875 334.441406 307.878906 Z M 334.441406 307.878906 " fill-opacity="1" fill-rule="nonzero"/><path fill="#374778" d="M 364.703125 308.828125 C 381.660156 317.117188 404.566406 318.804688 419.980469 306.417969 C 402.753906 314.90625 382.871094 313.054688 364.703125 308.828125 Z M 364.703125 308.828125 " fill-opacity="1" fill-rule="nonzero"/><path fill="#b35d73" d="M 358.320312 171.363281 C 358.320312 171.363281 350.550781 182.777344 347.191406 195.03125 C 343.832031 207.285156 347.167969 240.933594 341.261719 257.679688 C 329.207031 291.871094 334.445312 307.878906 334.445312 307.878906 C 334.445312 307.878906 337.507812 362.625 337.507812 373.296875 C 337.507812 383.96875 326.738281 439.179688 284.867188 420.265625 C 285.609375 412.191406 314.671875 404.988281 319.898438 379.824219 C 325.1875 354.328125 328.019531 309.855469 328.019531 309.855469 C 328.019531 309.855469 317.742188 297.40625 317.742188 284.757812 C 317.742188 272.109375 326.832031 231 327.820312 223.492188 C 328.78125 216.199219 320.652344 195.257812 320.679688 187.71875 C 320.679688 187.324219 320.835938 186.953125 321.132812 186.6875 C 323.902344 184.207031 339.65625 170.914062 358.320312 171.363281 Z M 358.320312 171.363281 " fill-opacity="1" fill-rule="nonzero"/><path fill="#b35d73" d="M 410.078125 169.019531 C 410.078125 169.019531 413.410156 188.113281 407.28125 206.890625 C 403.121094 219.632812 396.015625 249.183594 395.519531 274.382812 C 395.089844 296.414062 401.746094 314.402344 405.304688 329.523438 C 408.863281 344.640625 413.308594 368.652344 413.902344 395.628906 C 414.496094 422.609375 416.570312 482.046875 417.757812 489.457031 C 419.832031 492.71875 480.019531 491.386719 492.769531 489.605469 C 492.769531 489.605469 494.84375 469.449219 490.101562 431.796875 C 487.265625 409.289062 463.417969 352.941406 461.042969 335.15625 C 458.671875 317.367188 456.597656 281.496094 459.265625 268.75 C 461.882812 256.246094 476.386719 214.175781 466.867188 183.476562 C 466.429688 182.0625 465.507812 180.835938 464.265625 180.035156 C 455.007812 174.078125 425.257812 167.886719 410.078125 169.019531 Z M 410.078125 169.019531 " fill-opacity="1" fill-rule="nonzero"/><path fill="#a35065" d="M 459.492188 372.261719 C 469.027344 369.578125 476.171875 392.035156 483.230469 405.007812 C 476.503906 383.515625 467.984375 362.605469 462.183594 340.875 C 458.769531 319.855469 455.808594 289.40625 459.882812 266.070312 C 466.054688 243.199219 474.703125 209.363281 467.078125 184.222656 C 451.515625 190.640625 428.070312 211.449219 428.070312 211.449219 C 428.070312 211.449219 440.136719 294.613281 434.929688 300.566406 C 430.210938 305.960938 414.078125 306.179688 399.839844 308.464844 C 401.699219 316.066406 403.785156 323.058594 405.304688 329.523438 C 409.25 346.371094 411.921875 363.570312 413.199219 380.859375 C 426.566406 378.714844 451.03125 374.640625 459.492188 372.261719 Z M 459.492188 372.261719 " fill-opacity="1" fill-rule="nonzero"/><path fill="#3f4a8a" d="M 214.433594 279.519531 L 208.921875 269.46875 C 208.265625 268.269531 209.144531 266.808594 210.511719 266.820312 L 247.914062 267.226562 C 248.527344 267.230469 249.09375 267.554688 249.417969 268.078125 L 255.597656 278.132812 C 256.332031 279.332031 255.460938 280.871094 254.054688 280.859375 L 215.980469 280.449219 C 215.335938 280.441406 214.742188 280.085938 214.433594 279.519531 Z M 214.433594 279.519531 " fill-opacity="1" fill-rule="nonzero"/><path fill="#353f7a" d="M 211.308594 279.484375 L 205.796875 269.4375 C 205.140625 268.238281 206.015625 266.773438 207.382812 266.789062 L 244.785156 267.191406 C 245.402344 267.199219 245.96875 267.519531 246.289062 268.042969 L 252.472656 278.101562 C 253.207031 279.300781 252.335938 280.839844 250.929688 280.824219 L 212.855469 280.414062 C 212.210938 280.40625 211.617188 280.050781 211.308594 279.484375 Z M 211.308594 279.484375 " fill-opacity="1" fill-rule="nonzero"/><path fill="#353f7a" d="M 283.550781 275.375 L 356.875 394.691406 C 357.65625 395.964844 356.730469 397.601562 355.238281 397.585938 L 328.710938 397.300781 L 261.246094 274.25 L 281.953125 274.472656 C 282.605469 274.476562 283.210938 274.820312 283.550781 275.375 Z M 283.550781 275.375 " fill-opacity="1" fill-rule="nonzero"/><path fill="#2c356b" d="M 279.890625 276.578125 L 352.929688 395.433594 C 353.5 396.363281 352.824219 397.558594 351.730469 397.546875 L 249.082031 396.441406 C 247.894531 396.429688 246.808594 395.777344 246.238281 394.738281 L 181.085938 275.902344 C 180.464844 274.769531 181.292969 273.386719 182.585938 273.398438 L 276.058594 274.40625 C 277.621094 274.425781 279.070312 275.246094 279.890625 276.578125 Z M 279.890625 276.578125 " fill-opacity="1" fill-rule="nonzero"/><path fill="#f5bcab" d="M 454.09375 176.925781 C 466.210938 179.789062 472.089844 188.730469 474.292969 201.351562 L 493.144531 330.136719 C 493.617188 332.699219 493.585938 335.398438 492.945312 338.097656 C 490.496094 348.457031 480.105469 354.871094 469.742188 352.417969 C 461.011719 350.355469 455.085938 342.65625 454.902344 334.085938 C 454.902344 334.085938 436.050781 245.035156 431.074219 209.914062 C 430.84375 208.699219 430.191406 200.71875 430.515625 198.109375 C 432.359375 183.355469 439.492188 173.46875 454.09375 176.925781 Z M 454.09375 176.925781 " fill-opacity="1" fill-rule="nonzero"/><path fill="#b35d73" d="M 466.675781 182.183594 C 466.675781 182.183594 472.335938 184.851562 475.996094 199.246094 C 479.65625 213.640625 486.136719 256.15625 490.203125 278.882812 C 494.265625 301.609375 497.714844 336.898438 494.011719 345.640625 C 490.308594 354.386719 478.410156 360.746094 462.816406 352.902344 C 447.21875 345.058594 443.601562 289.808594 439.367188 271.078125 C 435.136719 252.34375 425.257812 215.558594 427.917969 195.539062 C 430.578125 175.523438 449.964844 169.695312 466.675781 182.183594 Z M 466.675781 182.183594 " fill-opacity="1" fill-rule="nonzero"/><path fill="#a35065" d="M 468.773438 310.683594 L 447.089844 317.371094 C 446.152344 312.75 445.324219 308.011719 444.570312 303.363281 C 460.488281 304.585938 468.773438 310.683594 468.773438 310.683594 Z M 468.773438 310.683594 " fill-opacity="1" fill-rule="nonzero"/><path fill="#a35065" d="M 355.769531 367.976562 C 355.769531 367.976562 345.082031 354.324219 349.285156 327.316406 L 365.925781 327.613281 L 371.46875 358.863281 Z M 355.769531 367.976562 " fill-opacity="1" fill-rule="nonzero"/><path fill="#f5bcab" d="M 408.820312 325.136719 C 439.195312 318.53125 451.613281 317.316406 464.089844 316.640625 C 465.746094 316.359375 467.398438 316.300781 469.015625 316.449219 C 476.488281 317.132812 483.1875 322.160156 485.628906 329.746094 C 488.894531 339.878906 483.320312 350.742188 473.183594 354.003906 C 471.195312 354.644531 469.175781 354.941406 467.191406 354.933594 C 467.191406 354.933594 353.789062 359.84375 353.789062 359.84375 C 353.386719 359.878906 352.988281 359.886719 352.589844 359.875 C 348.171875 359.730469 344.132812 356.867188 342.707031 352.4375 C 340.890625 346.792969 344.65625 339.246094 350.300781 337.429688 C 351.3125 337.105469 382.644531 330.832031 408.820312 325.136719 Z M 408.820312 325.136719 " fill-opacity="1" fill-rule="nonzero"/><path fill="#f5bcab" d="M 355.964844 335.929688 C 352.019531 336.105469 347.054688 336.726562 342.519531 337.023438 C 335.523438 337.28125 330.933594 334.644531 329.140625 333.253906 C 325.394531 330.347656 323.867188 329.375 320.433594 327.472656 C 317.195312 325.679688 314.449219 325.65625 314.449219 325.65625 L 324.753906 342.484375 C 325.597656 343.867188 325.472656 345.628906 324.4375 346.871094 C 322.226562 349.527344 318.492188 353.835938 317.058594 354.445312 C 315.777344 354.988281 308.328125 358.105469 301.84375 359.796875 C 297.722656 360.871094 293.445312 361.210938 293.136719 361.613281 C 291.476562 364.527344 294.785156 366.058594 294.785156 366.058594 C 292.195312 370.65625 297.0625 372.140625 297.0625 372.140625 C 297.0625 372.140625 296.441406 375.652344 299.234375 376.136719 C 300.332031 376.328125 304.183594 376.453125 304.183594 376.453125 C 304.183594 376.453125 305.074219 378.546875 306.375 378.691406 C 307.675781 378.835938 330.046875 378.335938 335.035156 375.003906 C 336.652344 373.921875 342.089844 365.863281 345.882812 360.542969 C 350.980469 359.996094 362.074219 359.015625 362.074219 359.015625 C 379.125 355.617188 370.261719 335.300781 355.964844 335.929688 Z M 355.964844 335.929688 " fill-opacity="1" fill-rule="nonzero"/><path fill="#e09282" d="M 294.785156 366.058594 C 299.5625 365.480469 304.808594 364.835938 309.582031 364.078125 C 314.234375 363.5 320.726562 362.332031 323.261719 358.308594 C 314.652344 362.648438 303.375 363.1875 294.785156 366.058594 Z M 294.785156 366.058594 " fill-opacity="1" fill-rule="nonzero"/><path fill="#e09282" d="M 297.0625 372.140625 C 302.3125 371.546875 308.078125 370.886719 313.328125 370.121094 C 319.628906 369.519531 324.042969 368.558594 328.171875 363.410156 C 325.4375 364.472656 322.976562 366.660156 320.046875 367.222656 C 312.917969 368.910156 303.632812 370.226562 297.0625 372.140625 Z M 297.0625 372.140625 " fill-opacity="1" fill-rule="nonzero"/><path fill="#e09282" d="M 304.183594 376.453125 C 309.839844 375.964844 315.484375 375.363281 321.125 374.714844 C 324.535156 374.617188 328.785156 372.988281 330.257812 370.105469 C 322.433594 374.019531 311.984375 373.964844 304.183594 376.453125 Z M 304.183594 376.453125 " fill-opacity="1" fill-rule="nonzero"/><path fill="#b35d73" d="M 491.308594 321.359375 C 491.308594 321.359375 500.832031 345.824219 485.597656 354.1875 C 471.074219 362.15625 355.769531 367.976562 355.769531 367.976562 C 355.769531 367.976562 364.628906 344.363281 349.285156 327.316406 C 349.285156 327.316406 443.210938 311.109375 455.164062 310.589844 C 467.117188 310.070312 486.988281 314.226562 491.308594 321.359375 Z M 491.308594 321.359375 " fill-opacity="1" fill-rule="nonzero"/><path fill="#c1b9b7" d="M 603.925781 349.917969 L 602.023438 361.566406 C 602.023438 361.566406 540.003906 380.515625 515.933594 389.082031 C 491.859375 397.648438 458.402344 413.964844 449.019531 447.828125 C 439.636719 481.6875 404.953125 652.210938 400.464844 671.792969 C 395.976562 691.375 455.957031 679.136719 517.972656 639.15625 C 579.988281 599.175781 598.347656 581.226562 612.628906 544.511719 C 626.910156 507.796875 655.0625 400.09375 655.0625 380.515625 C 655.0625 360.933594 623.375 351.140625 603.925781 349.917969 Z M 603.925781 349.917969 " fill-opacity="1" fill-rule="nonzero"/><path fill="#cec9c8" d="M 603.925781 349.917969 L 602.023438 361.566406 C 602.023438 361.566406 540.003906 380.515625 515.933594 389.082031 C 491.859375 397.648438 458.402344 413.964844 449.019531 447.828125 C 448.519531 449.625 447.949219 451.816406 447.316406 454.347656 L 519.199219 454.335938 C 519.199219 454.335938 624.460938 411.109375 655.0625 380.515625 C 655.0625 360.933594 623.375 351.140625 603.925781 349.917969 Z M 603.925781 349.917969 " fill-opacity="1" fill-rule="nonzero"/><path fill="#d6d4d4" d="M 510.21875 433.546875 C 480.84375 412.742188 461.472656 423.738281 461.472656 423.738281 C 455.972656 430.585938 451.589844 438.546875 449.019531 447.828125 C 439.632812 481.6875 404.953125 652.210938 400.464844 671.792969 C 397.605469 684.273438 420.929688 683.828125 454.277344 671.515625 C 498.757812 590.675781 538.484375 453.566406 510.21875 433.546875 Z M 510.21875 433.546875 " fill-opacity="1" fill-rule="nonzero"/><g clip-path="url(#262f1f6537)"><path fill="#ad7760" d="M 645.996094 428.832031 L 644.546875 434.859375 C 644.546875 434.859375 541.125 482.09375 527.644531 488.078125 C 519.703125 491.339844 516.042969 500.960938 514.3125 509 C 512.582031 517.042969 485.78125 615.617188 454.277344 671.515625 C 422.769531 727.410156 421.683594 799.753906 421.683594 799.753906 L 433.652344 793.226562 C 433.652344 793.226562 431.601562 752.976562 447.316406 718.164062 C 463.027344 683.351562 508.75 582.535156 519.703125 547.910156 C 530.65625 513.289062 535.742188 500.28125 541.183594 497.082031 C 546.621094 493.878906 654.335938 448.1875 659.414062 443.476562 C 664.492188 438.761719 660.507812 429.058594 645.996094 428.832031 Z M 645.996094 428.832031 " fill-opacity="1" fill-rule="nonzero"/></g></svg>