<svg xmlns="http://www.w3.org/2000/svg" xmlns:xlink="http://www.w3.org/1999/xlink" width="1080" zoomAndPan="magnify" viewBox="0 0 810 809.999993" height="1080" preserveAspectRatio="xMidYMid meet" version="1.0"><defs><clipPath id="36129ddba2"><path d="M 519.859375 731.175781 L 654.09375 731.175781 L 654.09375 779.546875 L 519.859375 779.546875 Z M 519.859375 731.175781 " clip-rule="nonzero"/></clipPath><clipPath id="cceed93e32"><path d="M 588.21875 551.222656 L 728.769531 551.222656 L 728.769531 601.652344 L 588.21875 601.652344 Z M 588.21875 551.222656 " clip-rule="nonzero"/></clipPath></defs><path fill="#665c59" d="M 476.070312 729.964844 C 476.070312 735.039062 474.230469 738.503906 470.941406 740.585938 C 454.375 751.089844 401.105469 726.765625 361.6875 699.308594 C 314.453125 666.40625 315.734375 705.207031 256.484375 731.242188 C 230.273438 742.761719 213.023438 744.230469 203.042969 740.898438 C 197.226562 738.964844 193.875 735.402344 192.648438 731.242188 C 184.988281 705.207031 236.058594 706.96875 264.140625 686.84375 C 274.6875 679.28125 271.144531 667.503906 262.613281 655.742188 C 248.425781 636.191406 220.429688 616.691406 220.429688 616.691406 C 220.429688 616.691406 425.503906 612.308594 433.941406 616.691406 C 441.949219 620.835938 400.144531 645.566406 390.507812 665.410156 C 389.996094 666.445312 389.582031 667.472656 389.261719 668.480469 C 382.871094 688.746094 476.070312 699.308594 476.070312 729.964844 " fill-opacity="1" fill-rule="nonzero"/><path fill="#49413f" d="M 470.9375 740.585938 C 454.375 751.089844 401.101562 726.765625 361.6875 699.308594 C 314.453125 666.40625 315.734375 705.207031 256.484375 731.242188 C 230.269531 742.761719 213.023438 744.234375 203.042969 740.898438 C 224.867188 733.289062 249.722656 721.207031 264.664062 705.207031 C 294.027344 673.765625 291.472656 659.367188 319.566406 668.480469 C 347.652344 677.59375 374.457031 695.773438 396.160156 705.207031 C 413.953125 712.929688 456.257812 733.4375 470.9375 740.585938 " fill-opacity="1" fill-rule="nonzero"/><path fill="#49413f" d="M 390.503906 665.410156 C 357.613281 667.9375 306.433594 662.539062 262.613281 655.742188 C 248.421875 636.191406 220.429688 616.691406 220.429688 616.691406 C 220.429688 616.691406 425.503906 612.308594 433.9375 616.691406 C 441.945312 620.835938 400.144531 645.566406 390.503906 665.410156 " fill-opacity="1" fill-rule="nonzero"/><path fill="#7485ce" d="M 569.316406 580.59375 C 546.6875 606.15625 497.945312 630.5625 405.097656 644.648438 C 168.628906 680.519531 113.203125 529.410156 124.089844 434.558594 C 124.140625 434.15625 124.183594 433.761719 124.230469 433.367188 C 135.722656 338.589844 76.265625 300.488281 83.378906 212.636719 C 88.488281 149.53125 194.449219 123.222656 267.222656 140.421875 C 339.992188 157.605469 360.421875 339.09375 385.949219 394.417969 C 411.476562 449.75 535.117188 478.828125 553.191406 487.265625 C 576.515625 498.15625 604.570312 540.785156 569.316406 580.59375 " fill-opacity="1" fill-rule="nonzero"/><path fill="#5d73ba" d="M 174.5625 269.042969 C 174.5625 269.042969 102.042969 546.542969 377.011719 569.015625 C 377.011719 569.015625 471.484375 583.070312 491.910156 562.628906 C 493.480469 561.0625 493.941406 559.621094 494.074219 558.269531 C 500.625 493.261719 432.761719 542.207031 379.800781 509.125 C 374.113281 505.570312 469.117188 506.378906 447.867188 478.007812 C 405.027344 420.808594 304.433594 350.046875 285.734375 247.125 C 278.074219 204.972656 177.671875 208.371094 174.5625 269.042969 " fill-opacity="1" fill-rule="nonzero"/><path fill="#5d73ba" d="M 569.316406 580.597656 C 546.6875 606.160156 497.941406 630.5625 405.097656 644.648438 C 168.628906 680.519531 113.203125 529.410156 124.089844 434.558594 C 140.019531 500.171875 194.3125 607.464844 275.515625 621.789062 C 405.097656 644.648438 456.0625 610.066406 569.316406 580.597656 " fill-opacity="1" fill-rule="nonzero"/><path fill="#f8feff" d="M 399.09375 487.167969 L 390.460938 487.78125 L 381.585938 488.414062 L 360.113281 489.945312 L 352.613281 490.480469 L 339.632812 491.40625 L 331.644531 491.972656 L 310.84375 493.460938 L 302.996094 494.015625 L 289.613281 494.96875 L 280.574219 495.617188 L 264.777344 496.742188 L 257.339844 497.265625 L 225.554688 499.53125 L 215.933594 500.21875 L 201.132812 501.269531 L 189.550781 338.722656 C 192.1875 339.5 194.914062 340.273438 197.71875 341.039062 C 205.761719 343.222656 214.476562 345.351562 223.8125 347.28125 C 226.347656 347.816406 228.925781 348.332031 231.550781 348.820312 C 234.296875 349.335938 237.105469 349.839844 239.953125 350.320312 C 242.671875 350.773438 245.425781 351.21875 248.234375 351.628906 C 255.933594 352.777344 263.972656 353.753906 272.316406 354.519531 C 274.992188 354.773438 277.699219 354.996094 280.433594 355.195312 C 283.191406 355.398438 285.988281 355.578125 288.816406 355.726562 C 290.769531 355.828125 292.703125 355.917969 294.613281 356 C 297.28125 356.109375 299.925781 356.191406 302.535156 356.242188 C 308.046875 356.375 313.441406 356.382812 318.691406 356.304688 C 321.339844 356.261719 323.957031 356.203125 326.53125 356.121094 C 331 355.96875 335.359375 355.75 339.613281 355.476562 C 342.277344 355.316406 344.898438 355.125 347.472656 354.914062 C 357.222656 354.117188 366.339844 353.050781 374.78125 351.820312 C 377.085938 351.488281 379.328125 351.136719 381.523438 350.785156 C 382.148438 355.617188 382.769531 360.441406 383.386719 365.273438 C 386.65625 390.648438 389.925781 416.015625 393.195312 441.398438 C 395.160156 456.652344 397.128906 471.914062 399.09375 487.167969 " fill-opacity="1" fill-rule="nonzero"/><path fill="#e4eeef" d="M 399.09375 487.167969 L 390.460938 487.78125 L 381.585938 488.414062 L 360.113281 489.945312 L 352.613281 490.480469 L 339.632812 491.40625 L 331.644531 491.972656 L 310.84375 493.460938 L 302.996094 494.015625 L 289.613281 494.96875 L 280.574219 495.617188 L 264.777344 496.742188 L 257.339844 497.265625 L 225.554688 499.53125 L 215.933594 500.21875 L 201.132812 501.269531 L 189.550781 338.722656 C 192.1875 339.5 194.914062 340.273438 197.71875 341.039062 C 194.136719 376.339844 196.984375 434.34375 234.691406 439.152344 C 287.832031 445.9375 328.804688 456.902344 354.265625 450.480469 C 364.660156 447.863281 379.390625 444.476562 393.195312 441.398438 C 395.160156 456.652344 397.128906 471.914062 399.09375 487.167969 " fill-opacity="1" fill-rule="nonzero"/><path fill="#ef6c52" d="M 234.6875 439.152344 C 233.570312 458.601562 230.90625 477.921875 226.226562 496.84375 C 226.003906 497.738281 225.78125 498.632812 225.550781 499.527344 L 215.933594 500.214844 C 218.316406 491.957031 220.257812 483.582031 221.808594 475.132812 C 228.984375 435.71875 228.339844 395.355469 224.675781 355.597656 C 224.425781 352.886719 224.132812 350.109375 223.8125 347.28125 C 226.347656 347.8125 228.921875 348.328125 231.550781 348.820312 C 232.59375 359.101562 233.683594 369.378906 234.304688 379.699219 C 235.503906 399.480469 235.824219 419.355469 234.6875 439.152344 " fill-opacity="1" fill-rule="nonzero"/><path fill="#ef6c52" d="M 248.234375 351.628906 C 250.820312 400.195312 254.027344 449.339844 264.773438 496.738281 L 257.339844 497.261719 C 256.734375 494.636719 256.152344 492 255.589844 489.351562 C 247.710938 452.1875 243.964844 414.382812 241.53125 376.53125 C 240.96875 367.796875 240.445312 359.058594 239.949219 350.320312 C 242.667969 350.773438 245.425781 351.214844 248.234375 351.628906 " fill-opacity="1" fill-rule="nonzero"/><path fill="#ef6c52" d="M 289.609375 494.96875 L 280.574219 495.613281 C 280.84375 490.414062 280.976562 485.191406 280.988281 479.964844 C 281.027344 441.273438 274.917969 402.914062 272.855469 364.324219 C 272.683594 361.199219 272.496094 357.910156 272.3125 354.515625 C 274.988281 354.769531 277.695312 354.992188 280.433594 355.191406 C 280.785156 385.464844 285.453125 415.902344 287.828125 445.933594 C 289.117188 462.226562 289.953125 478.625 289.609375 494.96875 " fill-opacity="1" fill-rule="nonzero"/><path fill="#ef6c52" d="M 310.066406 482.523438 C 310.328125 486.148438 310.582031 489.792969 310.84375 493.457031 L 302.992188 494.011719 C 302.519531 487.902344 302.117188 481.796875 301.675781 475.699219 C 300.167969 454.464844 298.746094 433.230469 297.488281 411.988281 C 296.390625 393.332031 295.414062 374.667969 294.613281 356 C 297.277344 356.109375 299.921875 356.191406 302.53125 356.242188 C 302.589844 357.84375 302.660156 359.441406 302.730469 361.042969 C 304.511719 401.578125 307.117188 442.058594 310.066406 482.523438 " fill-opacity="1" fill-rule="nonzero"/><path fill="#ef6c52" d="M 339.632812 491.402344 L 331.644531 491.964844 C 328.792969 456.6875 324.324219 421.550781 321.066406 386.300781 C 320.148438 376.316406 319.335938 366.304688 318.691406 356.300781 C 321.335938 356.257812 323.953125 356.199219 326.527344 356.117188 C 329.078125 397.597656 334.703125 438.808594 338.617188 480.15625 C 338.976562 483.902344 339.320312 487.65625 339.632812 491.402344 " fill-opacity="1" fill-rule="nonzero"/><path fill="#ef6c52" d="M 354.261719 450.476562 C 355.910156 463.675781 357.867188 476.835938 360.109375 489.941406 L 352.609375 490.480469 C 346.734375 456.519531 342.78125 422.226562 340.769531 387.8125 C 340.144531 377.039062 339.902344 366.257812 339.609375 355.476562 C 342.277344 355.3125 344.894531 355.121094 347.472656 354.910156 C 347.824219 366.207031 348.011719 377.511719 348.660156 388.800781 C 349.835938 409.410156 351.695312 429.988281 354.261719 450.476562 " fill-opacity="1" fill-rule="nonzero"/><path fill="#ef6c52" d="M 390.457031 487.777344 L 381.582031 488.410156 C 381.5625 446.339844 375.128906 404.566406 374.75 362.492188 C 374.71875 358.9375 374.730469 355.375 374.777344 351.820312 C 377.085938 351.488281 379.328125 351.136719 381.519531 350.785156 C 382.144531 355.617188 382.769531 360.4375 383.382812 365.273438 C 383.472656 406.015625 389.5625 447.113281 390.457031 487.777344 " fill-opacity="1" fill-rule="nonzero"/><path fill="#2c8475" d="M 292.96875 430.21875 C 292.96875 430.21875 456.789062 361.441406 502.132812 362.902344 C 547.472656 364.367188 562.097656 381.8125 550.398438 413.578125 C 538.699219 445.347656 435.335938 477.542969 396.332031 483.394531 C 357.328125 489.25 250.0625 485.332031 292.96875 430.21875 " fill-opacity="1" fill-rule="nonzero"/><path fill="#ff998c" d="M 570.859375 632.582031 C 570.59375 634.414062 565.292969 702.925781 570.859375 715.054688 C 576.417969 727.179688 614.398438 748.203125 628.136719 753.054688 C 628.136719 753.054688 561.0625 752.246094 549.75 753.054688 C 538.4375 753.863281 522.003906 751.167969 522.003906 742.273438 C 522.003906 733.378906 533.585938 720.710938 533.585938 709.394531 C 533.585938 698.074219 510.152344 574.367188 515 564.664062 C 519.851562 554.960938 580.648438 563.855469 570.859375 632.582031 " fill-opacity="1" fill-rule="nonzero"/><g clip-path="url(#36129ddba2)"><path fill="#351234" d="M 590.15625 734.707031 C 590.15625 734.707031 585.457031 745.992188 592.328125 759.738281 C 592.328125 759.738281 544.097656 746.429688 536.824219 739.960938 C 529.550781 733.492188 527.125 731.40625 527.125 731.40625 C 527.125 731.40625 523.898438 729.054688 520.550781 739.425781 C 519.382812 743.0625 519.035156 749.757812 525.550781 753.191406 C 537.753906 759.625 567.8125 768.425781 582.480469 773.109375 C 601.46875 779.175781 648.953125 783.890625 653.191406 773.109375 C 658.847656 758.714844 636.488281 757.230469 624.367188 751.167969 C 612.246094 745.101562 590.15625 734.707031 590.15625 734.707031 " fill-opacity="1" fill-rule="nonzero"/></g><path fill="#e6d3de" d="M 590.15625 729.605469 C 590.15625 729.605469 576.417969 732.839844 583.289062 746.585938 C 583.289062 746.585938 586.171875 761.488281 547.632812 738.75 C 534.796875 731.179688 532.460938 721.464844 530.390625 719.46875 C 529.890625 718.980469 529.109375 718.988281 528.613281 719.480469 C 527.480469 720.617188 523.011719 730.980469 520.875 737.605469 C 519.703125 741.238281 521.566406 745.167969 525.117188 746.570312 C 537.941406 751.644531 567.808594 763.328125 582.480469 768.011719 C 601.46875 774.078125 647.535156 778.121094 653.191406 768.011719 C 658.847656 757.90625 632.582031 753.460938 620.460938 747.394531 C 608.339844 741.332031 590.15625 729.605469 590.15625 729.605469 " fill-opacity="1" fill-rule="nonzero"/><path fill="#d1c0ca" d="M 600.1875 752.582031 C 603.910156 749.757812 607.160156 746.378906 609.851562 742.558594 C 610.789062 741.230469 613 742.5 612.050781 743.847656 C 609.085938 748.046875 605.566406 751.679688 601.472656 754.78125 C 600.164062 755.773438 598.890625 753.5625 600.1875 752.582031 " fill-opacity="1" fill-rule="nonzero"/><path fill="#d1c0ca" d="M 611.296875 751.210938 C 612.585938 749.042969 614.132812 747.058594 615.917969 745.273438 C 617.078125 744.113281 618.878906 745.914062 617.71875 747.078125 C 616.082031 748.714844 614.683594 750.507812 613.496094 752.496094 C 612.652344 753.902344 610.449219 752.621094 611.296875 751.210938 " fill-opacity="1" fill-rule="nonzero"/><path fill="#d1c0ca" d="M 599.773438 744.078125 C 601.230469 742.441406 602.683594 740.800781 604.144531 739.160156 C 605.234375 737.929688 607.03125 739.738281 605.941406 740.960938 C 604.488281 742.601562 603.03125 744.242188 601.574219 745.882812 C 600.484375 747.109375 598.6875 745.304688 599.773438 744.078125 " fill-opacity="1" fill-rule="nonzero"/><path fill="#4aafa3" d="M 329.699219 530.171875 C 373.277344 536.695312 403.609375 533.070312 445.757812 520.777344 C 464.566406 515.265625 483.355469 509.433594 502.261719 504.578125 C 513.914062 501.582031 525.703125 498.132812 535.734375 491.449219 C 535.832031 491.390625 535.910156 491.328125 536.011719 491.269531 C 555.414062 478.105469 580.324219 441.839844 549.664062 430.21875 C 544.035156 428.078125 530.144531 426.847656 512.566406 426.15625 C 512.507812 426.15625 512.445312 426.15625 512.445312 426.15625 C 501.765625 425.738281 489.699219 425.519531 477.3125 425.382812 C 433.550781 424.90625 385.851562 425.699219 380.144531 423.640625 C 379.789062 423.5 379.429688 423.359375 379.054688 423.179688 C 369.226562 418.542969 355.988281 398.789062 339.777344 400.21875 C 322.953125 401.6875 276.140625 430.21875 276.140625 430.21875 C 276.140625 430.21875 265.875 448.855469 262.882812 470.6875 C 259.199219 497.597656 278.410156 522.519531 329.699219 530.171875 " fill-opacity="1" fill-rule="nonzero"/><path fill="#2c8475" d="M 445.761719 520.777344 C 464.570312 515.265625 483.355469 509.433594 502.261719 504.578125 C 513.914062 501.582031 525.707031 498.132812 535.734375 491.449219 C 535.832031 491.390625 535.910156 491.332031 536.011719 491.269531 L 532.464844 477.53125 C 523.445312 473.722656 510.863281 491.210938 445.761719 520.777344 " fill-opacity="1" fill-rule="nonzero"/><path fill="#4aafa3" d="M 524.082031 689.277344 C 527.429688 690.46875 531.117188 691.160156 535.019531 691.460938 C 535.671875 691.519531 536.347656 691.558594 537.042969 691.578125 C 549.765625 692.152344 564.25 688.902344 575.269531 685.609375 C 575.269531 685.609375 578.003906 638.792969 579.570312 586.6875 C 579.707031 582.085938 579.847656 577.40625 579.96875 572.726562 C 579.988281 572.25 579.988281 571.773438 580.007812 571.296875 C 581.175781 525.632812 581.175781 479.058594 577.46875 458.417969 C 577.371094 457.742188 577.230469 457.128906 577.113281 456.53125 C 577.03125 456.195312 576.976562 455.855469 576.878906 455.5 C 576.855469 455.382812 576.816406 455.261719 576.792969 455.140625 C 576.519531 453.996094 576.28125 453 576.003906 452.1875 C 572.773438 442.292969 565.9375 435.96875 557.910156 431.984375 C 557.453125 431.746094 556.976562 431.527344 556.523438 431.308594 C 555.550781 430.855469 554.558594 430.4375 553.550781 430.039062 C 552.417969 429.625 551.292969 429.230469 550.140625 428.851562 C 550.101562 428.832031 550.082031 428.832031 550.042969 428.832031 C 549.445312 428.65625 548.851562 428.472656 548.257812 428.316406 C 547.128906 427.976562 545.980469 427.703125 544.8125 427.441406 C 544.351562 427.34375 543.902344 427.265625 543.441406 427.164062 C 543.007812 427.089844 542.550781 426.988281 542.09375 426.90625 C 530.421875 424.726562 519.265625 425.441406 514.667969 425.917969 C 513.558594 426.015625 512.824219 426.117188 512.566406 426.15625 C 512.507812 426.15625 512.449219 426.15625 512.449219 426.15625 L 506.582031 472.890625 L 504.878906 486.550781 L 504.324219 490.953125 C 504.261719 497 503.828125 508.304688 503.628906 522.9375 C 502.996094 566.140625 504.382812 638.359375 524.082031 689.277344 " fill-opacity="1" fill-rule="nonzero"/><path fill="#2c8475" d="M 298.0625 468.128906 C 302.777344 467.101562 306.34375 466.246094 307.296875 465.988281 C 315.082031 463.929688 322.734375 461.152344 330.164062 457.859375 C 329.394531 466.109375 328.125 474.277344 326.339844 482.367188 C 326.164062 483.261719 325.964844 484.171875 325.746094 485.066406 C 319.167969 483.636719 312.964844 481.359375 307.652344 477.746094 C 303.925781 475.230469 300.675781 472.097656 298.0625 468.128906 Z M 327.6875 485.441406 C 327.90625 484.527344 328.105469 483.617188 328.304688 482.703125 C 330.164062 474.199219 331.472656 465.59375 332.246094 456.910156 C 333.433594 456.351562 334.644531 455.835938 335.835938 455.261719 C 335.949219 459.605469 335.851562 463.945312 335.398438 468.289062 C 335.0625 471.621094 334.546875 474.949219 333.871094 478.222656 C 333.613281 479.453125 333.21875 480.660156 333.019531 481.894531 C 332.902344 482.367188 332.78125 482.84375 332.664062 483.339844 C 332.621094 483.457031 332.605469 483.597656 332.5625 483.71875 C 332.664062 484.191406 332.78125 484.6875 332.902344 485.183594 C 332.464844 484.902344 331.851562 484.902344 331.472656 485.441406 C 331.4375 485.539062 331.375 485.621094 331.316406 485.699219 C 331.253906 485.800781 331.214844 485.917969 331.195312 486.035156 C 331.097656 486.015625 330.996094 485.996094 330.898438 485.996094 C 329.828125 485.835938 328.757812 485.640625 327.6875 485.441406 Z M 262.863281 470.867188 C 262.863281 474.453125 278.796875 472.035156 291.621094 469.457031 C 293.128906 469.160156 294.574219 468.863281 295.960938 468.566406 C 297.527344 471.066406 299.351562 473.285156 301.390625 475.269531 C 307.652344 481.359375 315.917969 485.023438 324.914062 486.925781 C 340.132812 490.140625 356.285156 490.261719 371.785156 489.800781 C 405.96875 488.792969 439.679688 482.148438 472.777344 473.882812 C 473.050781 473.820312 473.25 473.664062 473.347656 473.464844 C 473.726562 472.8125 473.210938 471.738281 472.238281 471.976562 C 470.21875 472.476562 468.195312 472.96875 466.171875 473.464844 C 437.042969 480.523438 407.472656 486.15625 377.492188 487.601562 C 363.003906 488.296875 348.199219 488.234375 333.773438 486.371094 C 334.109375 485.738281 334.246094 485.023438 334.46875 484.234375 C 334.527344 484.011719 334.585938 483.816406 334.625 483.597656 C 335.554688 480.1875 336.25 476.695312 336.765625 473.207031 C 337.714844 466.941406 337.992188 460.617188 337.753906 454.289062 C 348.476562 448.933594 358.683594 442.492188 368.15625 435.414062 C 371.703125 432.753906 376.042969 428.492188 380.066406 423.617188 C 382.742188 420.382812 385.28125 416.855469 387.339844 413.363281 C 392.332031 404.980469 394.632812 396.707031 389.679688 392.703125 C 389.023438 392.1875 388.132812 391.832031 387.023438 391.613281 C 376.617188 389.550781 347.980469 399.523438 339.777344 400.21875 C 338.152344 400.355469 336.230469 400.753906 334.109375 401.347656 C 333.515625 401.527344 332.902344 401.707031 332.265625 401.90625 C 331.039062 402.296875 329.75 402.757812 328.421875 403.253906 C 327.53125 403.570312 326.621094 403.925781 325.707031 404.300781 C 325.132812 404.519531 324.578125 404.757812 324.003906 404.996094 C 323.585938 405.175781 323.148438 405.351562 322.734375 405.53125 C 321.882812 405.886719 321.03125 406.265625 320.179688 406.640625 C 320.097656 406.683594 320.039062 406.703125 319.957031 406.738281 C 319.246094 407.058594 318.53125 407.394531 317.800781 407.734375 C 315.539062 408.761719 313.222656 409.855469 310.921875 411.003906 C 309.574219 411.679688 308.25 412.351562 306.898438 413.027344 C 306.703125 413.128906 306.503906 413.222656 306.304688 413.324219 C 297.230469 418.003906 288.570312 422.902344 282.882812 426.230469 C 282.605469 426.390625 282.324219 426.546875 282.066406 426.707031 C 278.382812 428.847656 276.144531 430.21875 276.144531 430.21875 C 276.144531 430.21875 275.984375 430.515625 275.707031 431.070312 C 275.589844 431.269531 275.449219 431.527344 275.308594 431.824219 C 274.855469 432.71875 274.242188 433.964844 273.527344 435.511719 C 273.269531 436.070312 273.011719 436.664062 272.734375 437.277344 C 272.554688 437.695312 272.355469 438.128906 272.160156 438.566406 C 271.683594 439.679688 271.1875 440.886719 270.652344 442.195312 C 269.285156 445.644531 267.839844 449.710938 266.511719 454.171875 C 266.351562 454.726562 266.195312 455.28125 266.035156 455.855469 C 265.5 457.71875 265.003906 459.644531 264.570312 461.625 C 264.332031 462.679688 264.09375 463.730469 263.894531 464.796875 C 263.777344 465.414062 263.65625 466.027344 263.539062 466.664062 C 263.28125 467.992188 263.0625 469.339844 262.882812 470.6875 C 262.882812 470.746094 262.863281 470.808594 262.863281 470.867188 " fill-opacity="1" fill-rule="nonzero"/><path fill="#2c8475" d="M 467.324219 474.894531 C 475.882812 473.050781 484.226562 470.511719 492.375 467.257812 C 496.574219 474.257812 500.714844 480.625 504.878906 486.550781 C 513.003906 498.171875 521.207031 508.144531 529.886719 518.179688 C 529.671875 518.335938 529.511719 518.574219 529.488281 518.910156 C 525.390625 576.453125 527.253906 634.292969 535.019531 691.460938 C 535.671875 691.519531 536.347656 691.558594 537.042969 691.578125 C 529.234375 634.730469 527.390625 577.167969 531.394531 519.925781 C 538.152344 527.65625 545.207031 535.488281 552.777344 544.152344 C 565.125 558.273438 573.785156 566.835938 579.96875 572.726562 C 579.988281 572.25 579.988281 571.773438 580.007812 571.296875 C 581.175781 525.632812 581.175781 479.058594 577.46875 458.417969 C 577.371094 457.742188 577.230469 457.128906 577.113281 456.53125 C 577.03125 456.195312 576.976562 455.855469 576.878906 455.5 C 576.855469 455.382812 576.816406 455.261719 576.792969 455.140625 C 574.890625 448.621094 571.839844 442.691406 566.808594 438.109375 C 564.09375 435.632812 561.082031 433.609375 557.910156 431.984375 C 557.453125 431.746094 556.976562 431.527344 556.523438 431.308594 C 555.550781 430.855469 554.558594 430.4375 553.550781 430.039062 C 552.417969 429.625 551.292969 429.230469 550.140625 428.851562 C 550.101562 428.832031 550.082031 428.832031 550.042969 428.832031 C 549.445312 428.65625 548.851562 428.472656 548.257812 428.316406 C 547.128906 427.976562 545.980469 427.703125 544.8125 427.441406 C 544.351562 427.34375 543.902344 427.265625 543.441406 427.164062 C 543.007812 427.089844 542.550781 426.988281 542.09375 426.90625 C 535.476562 425.757812 528.65625 425.5 522.140625 425.65625 C 519.664062 425.71875 517.164062 425.816406 514.667969 425.917969 C 502.164062 426.429688 489.398438 427.007812 477.808594 423.675781 C 474.335938 422.664062 470.988281 421.316406 467.777344 419.511719 C 476.042969 437.832031 483.789062 452.761719 491.339844 465.550781 C 483.355469 468.683594 475.191406 471.164062 466.789062 472.988281 C 465.539062 473.246094 466.074219 475.171875 467.324219 474.894531 " fill-opacity="1" fill-rule="nonzero"/><path fill="#3778a0" d="M 462.863281 416.578125 C 464.507812 417.550781 466.132812 418.601562 467.777344 419.511719 C 466.925781 417.648438 465.042969 416.898438 462.863281 416.578125 " fill-opacity="1" fill-rule="nonzero"/><path fill="#3778a0" d="M 462.863281 416.578125 C 459.59375 414.574219 456.246094 412.769531 452.480469 412.589844 C 451.984375 417.074219 458.105469 415.84375 462.863281 416.578125 " fill-opacity="1" fill-rule="nonzero"/><path fill="#ff998c" d="M 586.144531 467.589844 C 586.753906 469.425781 613.703125 536.089844 624.5625 544.859375 C 635.421875 553.628906 680.804688 555.613281 695.933594 553.753906 C 695.933594 553.753906 632.714844 584.273438 622.492188 590.304688 C 612.269531 596.339844 595.617188 601.476562 591.476562 593.144531 C 587.332031 584.8125 592.28125 567.539062 587.011719 556.933594 C 581.738281 546.328125 502.15625 441.351562 502.179688 430 C 502.203125 418.648438 563.304688 398.632812 586.144531 467.589844 " fill-opacity="1" fill-rule="nonzero"/><g clip-path="url(#cceed93e32)"><path fill="#351234" d="M 651.800781 554.269531 C 651.800781 554.269531 647.460938 558.523438 660.296875 568.195312 C 660.296875 568.195312 643.144531 592.679688 604.277344 584.066406 C 594.335938 581.863281 591.210938 580.574219 591.210938 580.574219 C 591.210938 580.574219 587.085938 579.871094 588.789062 591.152344 C 589.382812 595.105469 590.917969 602.640625 599.054688 601.382812 C 613.320312 599.175781 646.574219 596.289062 662.496094 593.835938 C 683.117188 590.660156 729.804688 572.9375 728.75 560.859375 C 727.34375 544.734375 705.703125 553.769531 691.523438 553.742188 C 677.34375 553.714844 651.800781 554.269531 651.800781 554.269531 " fill-opacity="1" fill-rule="nonzero"/></g><path fill="#e6d3de" d="M 649.429688 549.492188 C 649.429688 549.492188 638.0625 558.929688 650.898438 568.605469 C 650.898438 568.605469 653.75 584.265625 607.265625 578.667969 C 601.558594 577.980469 592.074219 573.554688 589.207031 572.644531 C 588.507812 572.421875 587.78125 572.792969 587.546875 573.488281 C 587.015625 575.082031 587.15625 582.089844 588.238281 589.296875 C 588.835938 593.246094 592.414062 596.058594 596.390625 595.71875 C 610.769531 594.492188 644.195312 591.507812 660.128906 589.058594 C 680.746094 585.882812 725.78125 568.191406 726.375 556.082031 C 726.96875 543.976562 700.289062 552.058594 686.109375 552.027344 C 671.929688 552 649.429688 549.492188 649.429688 549.492188 " fill-opacity="1" fill-rule="nonzero"/><path fill="#d1c0ca" d="M 669.523438 566.34375 C 671.699219 561.960938 673.167969 557.28125 673.914062 552.445312 C 674.175781 550.761719 676.835938 550.921875 676.574219 552.625 C 675.757812 557.945312 674.144531 562.988281 671.753906 567.804688 C 670.992188 569.34375 668.769531 567.863281 669.523438 566.34375 " fill-opacity="1" fill-rule="nonzero"/><path fill="#d1c0ca" d="M 679.296875 559.875 C 679.5 557.246094 680.023438 554.660156 680.859375 552.160156 C 681.410156 550.53125 683.9375 551.378906 683.390625 553.007812 C 682.617188 555.308594 682.144531 557.636719 681.957031 560.054688 C 681.820312 561.761719 679.164062 561.59375 679.296875 559.875 " fill-opacity="1" fill-rule="nonzero"/><path fill="#d1c0ca" d="M 665.179688 558.570312 C 665.78125 556.351562 666.378906 554.136719 666.980469 551.921875 C 667.433594 550.261719 669.957031 551.121094 669.507812 552.769531 C 668.910156 554.984375 668.3125 557.203125 667.710938 559.417969 C 667.257812 561.078125 664.734375 560.222656 665.179688 558.570312 " fill-opacity="1" fill-rule="nonzero"/><path fill="#4aafa3" d="M 424.238281 388.519531 C 424.339844 389.710938 430.957031 391.871094 439.597656 395.007812 C 442.847656 396.195312 446.554688 397.445312 450.320312 398.8125 C 456.921875 401.214844 465.1875 403.730469 470.707031 408.242188 C 476.351562 412.851562 477.933594 416.417969 480.785156 422.992188 C 491.671875 448.101562 506.128906 471.644531 523.570312 492.730469 C 531.941406 502.847656 541.386719 517.230469 550.554688 526.648438 C 555.507812 531.742188 561.3125 539.046875 567.917969 542.132812 C 568.054688 542.191406 568.175781 542.25 568.3125 542.308594 C 571.046875 543.480469 574.398438 543.855469 578.082031 543.519531 C 578.285156 543.5 578.480469 543.480469 578.679688 543.460938 C 579.292969 543.398438 579.910156 543.300781 580.539062 543.222656 C 584.800781 542.507812 589.4375 540.941406 594.035156 538.621094 C 597.085938 537.09375 600.121094 535.25 603.011719 533.089844 C 606.164062 530.769531 609.15625 528.113281 611.832031 525.140625 C 612.824219 524.046875 613.777344 522.898438 614.6875 521.726562 C 615.003906 521.308594 615.835938 520.933594 615.617188 520.476562 C 588.507812 463.429688 574.398438 425.539062 557.871094 393.238281 C 557.554688 392.605469 557.238281 391.988281 556.917969 391.375 C 556.382812 390.363281 555.867188 389.371094 555.351562 388.382812 C 554.800781 387.332031 554.222656 386.28125 553.667969 385.230469 C 552.957031 383.921875 552.242188 382.609375 551.527344 381.324219 C 551.070312 380.53125 550.636719 379.757812 550.203125 378.984375 C 550.160156 378.921875 550.121094 378.84375 550.082031 378.785156 C 547.148438 373.691406 542.132812 369.207031 536.40625 365.757812 C 533.695312 364.128906 530.800781 362.722656 527.886719 361.613281 C 527.011719 361.257812 526.144531 360.960938 525.269531 360.683594 C 522.910156 359.886719 520.574219 359.3125 518.3125 358.976562 C 517.917969 358.898438 517.523438 358.835938 517.121094 358.777344 C 514.371094 358.421875 511.398438 358.261719 508.304688 358.285156 C 507.21875 358.285156 506.105469 358.320312 504.976562 358.382812 C 498.535156 358.640625 491.578125 359.59375 484.546875 361.039062 C 480.859375 361.769531 477.132812 362.644531 473.445312 363.636719 C 470.949219 364.308594 468.472656 365.003906 466.035156 365.757812 C 464.054688 366.371094 462.109375 366.988281 460.1875 367.660156 C 457.234375 368.652344 454.363281 369.703125 451.585938 370.777344 C 447.308594 372.441406 443.34375 374.183594 439.816406 375.910156 C 439.160156 376.226562 438.53125 376.542969 437.894531 376.878906 C 434.210938 378.785156 431.117188 380.667969 428.816406 382.414062 C 428.5625 382.609375 428.304688 382.808594 428.066406 383.007812 C 425.488281 385.089844 424.101562 386.992188 424.238281 388.519531 " fill-opacity="1" fill-rule="nonzero"/><path fill="#2c8475" d="M 472.820312 423.289062 C 473.113281 422.722656 473.472656 422.210938 473.800781 421.675781 C 473.777344 421.519531 473.789062 421.355469 473.84375 421.171875 C 475.714844 414.808594 477.589844 408.445312 479.460938 402.082031 C 479.878906 400.660156 482.105469 401.265625 481.683594 402.695312 C 480.308594 407.375 478.929688 412.054688 477.550781 416.734375 C 479.011719 415.171875 480.589844 413.71875 482.308594 412.367188 C 484.253906 410.839844 486.289062 409.433594 488.332031 408.042969 C 489.265625 407.40625 493.558594 405.164062 494.835938 403.769531 C 494.820312 403.636719 494.816406 403.496094 494.855469 403.34375 C 494.871094 403.269531 494.886719 403.203125 494.90625 403.128906 C 495.0625 402.492188 495.730469 402.203125 496.324219 402.324219 C 496.421875 402.34375 496.519531 402.363281 496.617188 402.382812 C 497.265625 402.515625 497.523438 403.222656 497.421875 403.800781 C 497.207031 405.023438 495.878906 405.621094 494.957031 406.28125 C 492.621094 407.953125 490.210938 409.515625 487.851562 411.15625 C 482.621094 414.796875 477.808594 418.714844 474.808594 424.453125 C 474.121094 425.769531 472.128906 424.605469 472.820312 423.289062 " fill-opacity="1" fill-rule="nonzero"/><path fill="#e2e8f2" d="M 411.542969 428.875 C 412.183594 428.144531 412.859375 427.4375 413.53125 426.726562 C 411.121094 432.886719 408.390625 438.890625 405.3125 444.707031 C 407.582031 439.515625 409.636719 434.226562 411.542969 428.875 Z M 377.742188 470.472656 C 383.308594 462.867188 388.710938 455.15625 394.046875 447.394531 C 394.480469 447.785156 395.179688 447.855469 395.496094 447.183594 C 397.03125 443.957031 398.726562 440.828125 400.578125 437.800781 C 401.273438 436.761719 401.992188 435.746094 402.683594 434.707031 C 402.132812 435.722656 401.589844 436.734375 401.03125 437.71875 C 397.703125 443.601562 394.375 449.480469 391.046875 455.367188 C 391.113281 454.542969 389.796875 453.960938 389.164062 454.824219 C 387.898438 456.550781 387.890625 458.066406 389.078125 459.84375 C 389.480469 460.441406 390.402344 460.523438 390.789062 459.84375 C 392.730469 456.414062 394.671875 452.984375 396.613281 449.554688 C 395.769531 451.636719 394.984375 453.746094 394.316406 455.914062 C 393.9375 457.136719 395.851562 457.65625 396.230469 456.441406 C 398.769531 448.199219 402.621094 440.613281 407.652344 433.78125 C 403.78125 443.851562 399.269531 453.640625 394.082031 463.125 C 393.464844 464.257812 395.074219 465.160156 395.792969 464.125 C 404.34375 451.867188 411.242188 438.664062 416.453125 424.65625 C 416.886719 423.496094 415.113281 422.992188 414.597656 424.039062 C 414.246094 423.730469 413.714844 423.636719 413.289062 424.066406 C 413.078125 424.28125 412.890625 424.507812 412.679688 424.726562 C 412.40625 424.308594 411.800781 424.097656 411.324219 424.359375 C 409.734375 425.234375 408.429688 426.394531 407.277344 427.703125 C 408.132812 426.386719 409.007812 425.082031 409.859375 423.757812 C 410.5625 422.671875 408.875 421.734375 408.148438 422.757812 L 404.25 428.289062 C 402.140625 430.058594 400.027344 431.832031 397.921875 433.601562 C 399.609375 430.4375 401.261719 427.253906 402.832031 424.019531 C 403.386719 422.875 401.675781 421.871094 401.117188 423.019531 C 398.800781 427.792969 396.332031 432.480469 393.75 437.105469 C 391.816406 438.726562 389.886719 440.347656 387.949219 441.972656 C 386.972656 442.792969 388.382812 444.1875 389.351562 443.375 C 389.867188 442.941406 390.382812 442.511719 390.894531 442.078125 C 388.523438 446.128906 386.078125 450.144531 383.503906 454.078125 C 382.800781 455.152344 384.519531 456.144531 385.210938 455.082031 C 388.785156 449.625 392.140625 444.046875 395.316406 438.363281 C 396.8125 437.109375 398.308594 435.859375 399.796875 434.605469 L 386.722656 453.15625 C 386.402344 453.609375 386.550781 454.039062 386.875 454.308594 C 383.304688 459.394531 379.699219 464.457031 376.03125 469.46875 C 375.277344 470.5 376.996094 471.488281 377.742188 470.472656 " fill-opacity="1" fill-rule="nonzero"/><path fill="#e2e8f2" d="M 373.429688 445.707031 C 378.039062 438.445312 383.195312 431.566406 388.980469 425.199219 C 390.820312 423.175781 395.667969 418.015625 397.535156 422.457031 C 397.71875 422.464844 397.890625 422.527344 398.046875 422.621094 C 398.5625 422.03125 399.058594 421.425781 399.585938 420.839844 C 400.445312 419.890625 401.84375 421.296875 400.988281 422.242188 C 393.601562 430.417969 386.953125 439.15625 381.046875 448.453125 C 380.359375 449.527344 378.644531 448.535156 379.332031 447.453125 C 383.496094 440.902344 388.046875 434.640625 392.933594 428.640625 C 392.746094 428.804688 392.554688 428.964844 392.363281 429.128906 C 391.402344 429.953125 389.992188 428.558594 390.960938 427.726562 C 392.589844 426.332031 394.214844 424.9375 395.839844 423.546875 C 395.15625 421.546875 389.714844 427.339844 389.246094 427.871094 C 387.550781 429.773438 385.90625 431.726562 384.320312 433.726562 C 381.023438 437.886719 377.984375 442.222656 375.140625 446.707031 C 374.457031 447.78125 372.742188 446.785156 373.429688 445.707031 " fill-opacity="1" fill-rule="nonzero"/><path fill="#e2e8f2" d="M 417.625 444.699219 C 419.582031 440.785156 421.535156 436.871094 423.492188 432.960938 C 424.0625 431.820312 425.773438 432.820312 425.203125 433.960938 C 423.25 437.875 421.292969 441.789062 419.335938 445.699219 C 418.765625 446.84375 417.058594 445.839844 417.625 444.699219 " fill-opacity="1" fill-rule="nonzero"/><path fill="#e2e8f2" d="M 539.855469 397.800781 C 544.691406 395.300781 549.351562 392.523438 553.808594 389.472656 C 554.324219 389.132812 554.839844 388.777344 555.355469 388.382812 C 554.800781 387.328125 554.222656 386.277344 553.667969 385.226562 C 553.414062 385.40625 553.136719 385.605469 552.875 385.78125 C 551.765625 386.574219 550.675781 387.371094 549.570312 388.164062 C 548.914062 388.617188 549.074219 389.472656 549.527344 389.867188 C 547.800781 390.957031 546.058594 392.046875 544.292969 393.082031 C 544.238281 392.621094 543.9375 392.207031 543.363281 392.207031 C 542.351562 392.207031 542.15625 393.417969 542.730469 393.953125 C 541.441406 394.6875 540.171875 395.421875 538.863281 396.09375 C 537.738281 396.667969 538.726562 398.394531 539.855469 397.800781 " fill-opacity="1" fill-rule="nonzero"/><path fill="#e2e8f2" d="M 536.902344 388.222656 C 540.292969 387.011719 543.5 385.484375 546.515625 383.640625 C 544 386.199219 541.417969 388.71875 538.746094 391.140625 C 537.796875 392.011719 539.203125 393.398438 540.152344 392.546875 C 543.957031 389.074219 547.625 385.464844 551.148438 381.71875 C 551.292969 381.582031 551.410156 381.441406 551.527344 381.324219 C 551.074219 380.53125 550.636719 379.757812 550.203125 378.984375 C 550.160156 378.921875 550.121094 378.84375 550.082031 378.785156 C 549.902344 378.921875 549.722656 379.0625 549.527344 379.203125 C 545.582031 382.214844 541.164062 384.613281 536.367188 386.320312 C 535.179688 386.734375 535.691406 388.660156 536.902344 388.222656 " fill-opacity="1" fill-rule="nonzero"/><path fill="#e2e8f2" d="M 547.863281 395.976562 C 549.960938 395.144531 552.066406 394.46875 554.222656 393.953125 C 555.429688 393.65625 556.640625 393.417969 557.871094 393.238281 C 557.550781 392.605469 557.234375 391.992188 556.917969 391.375 C 555.988281 391.535156 555.035156 391.714844 554.105469 391.949219 C 551.824219 392.46875 549.566406 393.183594 547.347656 394.074219 C 546.175781 394.550781 546.691406 396.449219 547.863281 395.976562 " fill-opacity="1" fill-rule="nonzero"/><path fill="#2c8475" d="M 501.246094 414.035156 C 517.769531 456.78125 542.78125 495.867188 574.625 528.808594 C 575.515625 529.726562 574.113281 531.132812 573.226562 530.210938 C 541.132812 497.015625 515.988281 457.636719 499.335938 414.5625 C 498.871094 413.371094 500.789062 412.855469 501.246094 414.035156 " fill-opacity="1" fill-rule="nonzero"/><path fill="#dbd1d7" d="M 441.429688 324.855469 C 441.429688 324.855469 428.261719 339.921875 433.382812 353.828125 C 433.382812 353.828125 390.382812 357.8125 375.925781 349.011719 C 361.46875 340.210938 388.773438 292.660156 404.128906 301.441406 C 419.488281 310.222656 441.429688 324.855469 441.429688 324.855469 " fill-opacity="1" fill-rule="nonzero"/><path fill="#dbd1d7" d="M 346.550781 212.558594 C 346.550781 212.558594 407.035156 304.367188 408.507812 312.417969 C 409.980469 320.464844 385.941406 368.367188 372.683594 357.0625 C 359.425781 345.757812 318.226562 211.484375 346.550781 212.558594 " fill-opacity="1" fill-rule="nonzero"/><path fill="#ff998c" d="M 284.191406 202.480469 C 284.191406 202.480469 358.363281 259.5 362.445312 260.464844 C 383.042969 265.324219 352.921875 228.871094 350.015625 223.011719 C 348.957031 220.914062 342.292969 201.457031 343.5625 191.28125 C 345.820312 173.105469 350.015625 149.960938 350.015625 149.960938 L 339.824219 139.765625 L 306.140625 106.0625 C 308.691406 159.265625 284.191406 202.480469 284.191406 202.480469 " fill-opacity="1" fill-rule="nonzero"/><path fill="#ea756c" d="M 313.816406 141.914062 C 313.816406 141.914062 315.292969 178.292969 343.5625 191.28125 C 345.820312 173.101562 350.015625 149.960938 350.015625 149.960938 L 339.828125 139.769531 C 325.761719 138.980469 313.816406 141.914062 313.816406 141.914062 " fill-opacity="1" fill-rule="nonzero"/><path fill="#ff998c" d="M 371.953125 63.625 C 371.953125 63.625 399.011719 170.460938 360.253906 176.3125 C 321.492188 182.164062 293.667969 145.582031 290.742188 136.800781 C 287.820312 128.019531 280.535156 99.480469 299.550781 76.066406 C 318.566406 52.648438 355.863281 34.355469 371.953125 63.625 " fill-opacity="1" fill-rule="nonzero"/><path fill="#8e4746" d="M 261.984375 72.355469 C 261.984375 72.355469 261.984375 72.378906 262.007812 72.378906 C 259.679688 74.363281 241.648438 90.5625 247.136719 109.730469 C 252.992188 130.21875 273.902344 146.804688 282.734375 146.804688 C 300.28125 146.828125 300.445312 133.609375 306.621094 123.871094 C 312.179688 115.125 315.292969 112.039062 325.414062 109.753906 C 326.753906 109.453125 328.136719 109.128906 329.542969 108.761719 C 338.789062 106.316406 337.820312 88.253906 345.128906 86.3125 C 352.460938 84.355469 374.390625 82.160156 376.347656 59.96875 C 378.285156 37.777344 346.605469 18.996094 328.550781 23.863281 C 310.519531 28.757812 305.144531 38.996094 297.839844 38.007812 C 290.53125 37.035156 299.0625 17.035156 290.414062 15.582031 C 281.746094 14.105469 267.125 20.449219 268.601562 31.175781 C 270.054688 41.925781 268.484375 38.511719 268.484375 38.511719 C 268.484375 38.511719 264.683594 24.855469 258.339844 25.339844 C 255.183594 25.574219 243.722656 34.59375 248.101562 42.414062 C 241.511719 41.925781 236.667969 52.398438 246.652344 60.453125 C 250.476562 63.542969 253.40625 65.871094 255.644531 67.625 C 259.308594 70.484375 261.132812 71.828125 261.984375 72.355469 " fill-opacity="1" fill-rule="nonzero"/><path fill="#773535" d="M 302.484375 46.824219 C 307.941406 46.472656 311.25 51.597656 316.90625 50.734375 C 322.726562 49.847656 327.445312 47.070312 333.542969 47.414062 C 344.050781 48.003906 350.246094 55.261719 355.636719 63.496094 C 356.453125 64.742188 354.457031 65.902344 353.648438 64.660156 C 346.757812 54.144531 338.160156 47.109375 324.992188 50.648438 C 321.035156 51.710938 317.304688 54.042969 313.066406 53.199219 C 309.21875 52.4375 306.609375 48.867188 302.484375 49.132812 C 301 49.226562 301.007812 46.917969 302.484375 46.824219 " fill-opacity="1" fill-rule="nonzero"/><path fill="#773535" d="M 282.53125 70.3125 C 284.445312 71.484375 290.273438 68.097656 292.761719 67.90625 C 294.542969 67.769531 296.277344 68.089844 297.863281 68.910156 C 299.515625 69.761719 300.742188 71.054688 301.847656 72.527344 C 303.160156 74.273438 304.140625 77.726562 305.847656 79.011719 C 310.234375 82.304688 316.492188 78.851562 321.21875 82.421875 C 324.664062 85.03125 325.925781 89.078125 325.464844 93.25 C 325.300781 94.710938 322.992188 94.722656 323.15625 93.25 C 323.585938 89.371094 322.382812 85.550781 318.734375 83.558594 C 315.183594 81.613281 313.230469 83.226562 309.796875 83.113281 C 306.910156 83.019531 305.59375 82.484375 303.859375 80.175781 C 299.515625 74.394531 297.703125 67.542969 288.375 71.648438 C 285.636719 72.855469 284.148438 74.003906 281.363281 72.304688 C 280.101562 71.535156 281.257812 69.539062 282.53125 70.3125 " fill-opacity="1" fill-rule="nonzero"/><path fill="#773535" d="M 280.066406 26.90625 C 281.054688 26.792969 283.449219 26.707031 283.902344 25.519531 C 284.109375 24.972656 283.5625 24.09375 283.46875 23.5625 C 283.164062 21.867188 283.855469 20.296875 285.140625 19.214844 C 286.269531 18.261719 287.90625 19.886719 286.773438 20.84375 C 284.78125 22.523438 286.492188 23.492188 286.433594 25.332031 C 286.398438 26.367188 285.617188 27.128906 284.859375 27.71875 C 283.925781 28.445312 282.816406 28.902344 281.660156 29.101562 C 280.820312 29.246094 280.148438 29.070312 279.410156 29.570312 C 278.316406 30.304688 278.621094 31.269531 278.902344 32.503906 C 279.226562 33.949219 277.003906 34.570312 276.679688 33.117188 C 275.960938 29.941406 276.535156 27.304688 280.066406 26.90625 " fill-opacity="1" fill-rule="nonzero"/><path fill="#773535" d="M 248.695312 43.402344 C 253.660156 45.246094 257.769531 48.378906 260.867188 52.671875 C 261.738281 53.878906 259.738281 55.03125 258.878906 53.839844 C 256.15625 50.070312 252.433594 47.246094 248.082031 45.632812 C 246.699219 45.121094 247.296875 42.890625 248.695312 43.402344 " fill-opacity="1" fill-rule="nonzero"/><path fill="#773535" d="M 255.644531 67.625 C 259.308594 70.488281 261.132812 71.828125 261.984375 72.355469 C 262.078125 72.289062 262.144531 72.242188 262.191406 72.21875 C 262.238281 72.195312 262.261719 72.171875 262.261719 72.171875 C 262.261719 72.171875 280.820312 56 290.414062 46.792969 C 294.128906 43.265625 265.535156 57.960938 255.644531 67.625 " fill-opacity="1" fill-rule="nonzero"/><path fill="#773535" d="M 266.34375 80.570312 C 267.234375 79.410156 269.238281 80.558594 268.332031 81.734375 C 261.964844 90.007812 273.351562 96.089844 271.441406 104.371094 C 269.871094 111.167969 268.867188 116 274.332031 121.539062 C 278.15625 125.410156 283.449219 127.441406 288.40625 129.378906 C 289.773438 129.914062 289.175781 132.144531 287.792969 131.601562 C 278.835938 128.101562 267.296875 122.707031 267.378906 111.367188 C 267.402344 107.941406 268.988281 105.179688 268.800781 101.699219 C 268.59375 97.910156 266.671875 96.179688 265.328125 92.824219 C 263.644531 88.628906 263.519531 84.238281 266.34375 80.570312 " fill-opacity="1" fill-rule="nonzero"/><path fill="#8e4746" d="M 309.902344 101.3125 C 309.902344 101.3125 294.449219 115.082031 296.992188 126.554688 C 299.535156 138.027344 309.421875 145.875 308.691406 159.265625 C 307.960938 172.65625 301.375 176.945312 301.375 176.945312 C 301.375 176.945312 313.457031 170.457031 313.816406 159.117188 C 314.179688 147.777344 306.382812 132.164062 306.625 123.871094 C 306.863281 115.578125 317.363281 108.878906 317.363281 108.878906 L 309.902344 101.3125 " fill-opacity="1" fill-rule="nonzero"/><path fill="#ff998c" d="M 329.535156 108.75 C 329.535156 108.75 318.0625 85.332031 308.683594 97.042969 C 299.308594 108.75 302.488281 132.164062 313.816406 134.117188 C 325.148438 136.066406 330.511719 123.382812 329.535156 108.75 " fill-opacity="1" fill-rule="nonzero"/><path fill="#ea756c" d="M 311.011719 106.410156 C 313.90625 106.214844 316.753906 106.367188 319.617188 106.816406 C 320.226562 106.914062 320.457031 107.351562 320.433594 107.8125 C 320.554688 108.171875 320.527344 108.585938 320.210938 108.945312 C 317.480469 112.035156 316.371094 116.0625 317.15625 120.117188 C 317.433594 121.570312 315.210938 122.1875 314.929688 120.730469 C 314.113281 116.496094 314.976562 112.34375 317.363281 108.882812 C 315.253906 108.65625 313.136719 108.574219 311.011719 108.71875 C 309.527344 108.816406 309.535156 106.511719 311.011719 106.410156 " fill-opacity="1" fill-rule="nonzero"/><path fill="#ffec8f" d="M 314.609375 128.609375 C 315.308594 127.550781 317.027344 128.542969 316.320312 129.613281 C 316.28125 129.667969 316.261719 129.730469 316.226562 129.785156 C 316.238281 129.824219 316.261719 129.847656 316.273438 129.882812 C 316.8125 132.011719 316.453125 134.082031 315.308594 135.859375 C 315.207031 136.417969 315.109375 136.976562 315.007812 137.53125 C 314.835938 138.515625 313.324219 138.441406 313.101562 137.53125 C 312.335938 134.4375 312.847656 131.273438 314.609375 128.609375 " fill-opacity="1" fill-rule="nonzero"/><path fill="#eae4e8" d="M 252.738281 329.765625 L 255.078125 378.664062 C 256.5625 395.539062 256.820312 412.492188 255.847656 429.40625 L 255.691406 466.761719 C 255.691406 466.761719 299.546875 470.3125 348.972656 430.21875 C 362.765625 419.035156 378.144531 416.398438 381.136719 413.464844 C 387.855469 406.917969 386.824219 382.828125 389.679688 363.039062 C 390.671875 356.019531 392.136719 349.554688 394.632812 344.597656 C 404.125 325.605469 401.726562 310.453125 389.679688 289.730469 C 373.960938 262.707031 376.441406 260.484375 354.421875 223.921875 C 354.679688 225.152344 358.960938 247.4375 318.414062 201.078125 C 317.78125 200.34375 317.105469 199.570312 316.433594 198.796875 L 316.375 198.738281 C 302.757812 183.039062 293.820312 179.289062 293.820312 179.289062 C 293.820312 179.289062 242.097656 208.675781 252.738281 329.765625 " fill-opacity="1" fill-rule="nonzero"/><path fill="#dbd1d7" d="M 289.167969 397.296875 C 295.210938 411.277344 322.605469 422.464844 348.980469 430.214844 C 365.121094 422.855469 378.148438 416.398438 381.144531 413.464844 C 387.855469 406.914062 386.816406 382.832031 389.675781 363.035156 C 383.265625 361.097656 376.625 358.886719 372.683594 357.0625 C 366.132812 354.039062 353.257812 297.09375 338.894531 270.164062 C 322.664062 239.738281 307.960938 222.566406 289.167969 244.363281 C 288.914062 244.6875 273.699219 279.128906 273.558594 279.476562 C 265.742188 299.988281 276.878906 368.757812 289.167969 397.296875 " fill-opacity="1" fill-rule="nonzero"/><path fill="#351234" d="M 598.214844 324.027344 C 582.601562 332.507812 485.90625 383.976562 471.796875 391.488281 C 470.875 391.976562 469.738281 391.570312 469.339844 390.601562 C 465.9375 382.273438 451.992188 347.898438 454.167969 349.304688 C 456.5 350.8125 555.128906 297.882812 566.851562 291.578125 C 567.535156 291.214844 568.363281 291.339844 568.917969 291.886719 L 598.59375 321.230469 C 599.4375 322.0625 599.253906 323.464844 598.214844 324.027344 " fill-opacity="1" fill-rule="nonzero"/><path fill="#e6f0ff" d="M 589.902344 323.496094 C 575.644531 330.679688 487.324219 374.289062 474.433594 380.648438 C 473.59375 381.0625 472.550781 380.714844 472.1875 379.886719 C 469.046875 372.769531 456.171875 343.390625 458.167969 344.601562 C 460.304688 345.890625 550.394531 301.046875 561.101562 295.707031 C 561.722656 295.398438 562.484375 295.507812 562.988281 295.976562 L 590.246094 321.109375 C 591.015625 321.820312 590.851562 323.015625 589.902344 323.496094 " fill-opacity="1" fill-rule="nonzero"/><path fill="#d0d6dd" d="M 564.222656 303.5 C 567.390625 300.671875 573.300781 294.953125 577.664062 298.574219 C 578.710938 299.445312 577.550781 301.25 576.488281 300.367188 C 574.789062 298.960938 570.59375 301.21875 569.15625 302.253906 C 568.234375 302.917969 567.378906 303.621094 566.53125 304.347656 C 568.671875 306.421875 570.8125 308.496094 572.949219 310.574219 C 574.976562 312.542969 577.074219 315.949219 579.792969 314.292969 C 583.480469 312.046875 585.464844 310 590.066406 309.660156 C 591.4375 309.5625 591.3125 311.703125 589.957031 311.804688 C 584.664062 312.191406 582.824219 314.8125 579.410156 318.046875 C 579.160156 318.285156 578.683594 318.421875 578.355469 318.265625 C 576.144531 317.230469 574.535156 315.089844 572.796875 313.40625 C 569.914062 310.609375 567.027344 307.808594 564.144531 305.011719 C 563.730469 304.609375 563.8125 303.867188 564.222656 303.5 " fill-opacity="1" fill-rule="nonzero"/><path fill="#492749" d="M 555.960938 306.238281 C 560.550781 312.136719 565.289062 317.925781 570.160156 323.597656 C 571.058594 324.644531 569.46875 326.078125 568.566406 325.03125 C 563.699219 319.359375 558.960938 313.574219 554.367188 307.675781 C 553.519531 306.589844 555.109375 305.148438 555.960938 306.238281 " fill-opacity="1" fill-rule="nonzero"/><path fill="#492749" d="M 545.234375 311.859375 C 549.828125 317.757812 554.558594 323.542969 559.433594 329.214844 C 560.332031 330.261719 558.742188 331.703125 557.84375 330.652344 C 552.96875 324.980469 548.234375 319.195312 543.640625 313.292969 C 542.796875 312.210938 544.386719 310.765625 545.234375 311.859375 " fill-opacity="1" fill-rule="nonzero"/><path fill="#492749" d="M 534.464844 317.707031 C 539.0625 323.605469 543.792969 329.390625 548.667969 335.0625 C 549.566406 336.109375 547.976562 337.546875 547.074219 336.496094 C 542.203125 330.824219 537.46875 325.039062 532.875 319.140625 C 532.03125 318.054688 533.613281 316.613281 534.464844 317.707031 " fill-opacity="1" fill-rule="nonzero"/><path fill="#eae4e8" d="M 326.425781 234.339844 C 329.898438 239.589844 332.34375 245.445312 333.785156 251.574219 C 340.433594 279.824219 361.503906 334.152344 361.515625 366.476562 C 361.519531 389.246094 322.136719 413.398438 307.035156 399.492188 C 291.933594 385.589844 269.472656 280.328125 267.371094 256.804688 C 264.128906 220.492188 297.476562 190.53125 326.425781 234.339844 " fill-opacity="1" fill-rule="nonzero"/><path fill="#ff998c" d="M 535.09375 347.710938 C 537.460938 342.4375 550.398438 349.003906 526.992188 380.464844 C 522.695312 386.25 509.699219 405.074219 489.695312 408.273438 C 476.773438 410.339844 414.371094 408.996094 414.371094 408.996094 L 404.132812 377.746094 C 404.75 380.234375 466.792969 389.375 468.492188 377.746094 C 469.246094 372.539062 494.816406 351.199219 502.863281 349.734375 C 510.90625 348.269531 505.789062 357.78125 502.128906 362.90625 C 498.472656 368.03125 486.625 384.953125 511.636719 371.082031 C 518.277344 367.402344 530.703125 357.480469 535.09375 347.710938 " fill-opacity="1" fill-rule="nonzero"/><path fill="#eae4e8" d="M 350.019531 356.320312 C 350.019531 356.320312 425.335938 379.003906 450.9375 377.542969 C 450.9375 377.542969 447.28125 403.882812 454.59375 412.664062 C 454.59375 412.664062 317.273438 418.761719 307.035156 399.492188 C 296.800781 380.222656 350.019531 356.320312 350.019531 356.320312 " fill-opacity="1" fill-rule="nonzero"/><path fill="#dbd1d7" d="M 275.867188 245.574219 C 278.222656 238.8125 280.679688 231.675781 285.832031 226.460938 C 292.035156 220.171875 300.417969 219.382812 308.683594 221.640625 C 323.566406 225.746094 333.8125 238.179688 339.617188 251.9375 C 340.09375 253.089844 342.015625 252.574219 341.519531 251.40625 C 335.753906 237.742188 325.667969 225.191406 311.417969 220.433594 C 311.792969 219.878906 312.09375 219.222656 312.308594 218.570312 C 314.351562 212.640625 315.898438 206.8125 318.414062 201.082031 C 317.78125 200.347656 317.105469 199.574219 316.433594 198.800781 L 316.375 198.742188 C 314.867188 203.5 313.359375 208.195312 313.261719 208.476562 C 312.925781 209.464844 309.792969 220.039062 308.960938 219.480469 C 308.601562 219.222656 308.265625 219.28125 307.992188 219.460938 C 307.335938 219.304688 306.703125 219.144531 306.027344 219.027344 C 298.535156 217.675781 291.246094 218.808594 285.496094 224.023438 C 279.414062 229.554688 276.597656 237.503906 273.960938 245.058594 C 273.546875 246.269531 275.449219 246.789062 275.867188 245.574219 " fill-opacity="1" fill-rule="nonzero"/><path fill="#ff998c" d="M 491.140625 311.566406 C 492.550781 312.144531 494.59375 312.734375 496.773438 313.132812 C 493.523438 317.753906 489.835938 323.960938 485.316406 324.851562 C 477.984375 326.316406 486.03125 309.484375 491.140625 311.566406 Z M 432.703125 351.5 C 432.820312 351.996094 432.941406 352.492188 433.09375 352.984375 C 433.195312 353.265625 433.292969 353.542969 433.375 353.820312 C 437.617188 354.949219 446.433594 356.953125 455.90625 356.261719 C 457.832031 356.121094 459.789062 355.859375 461.734375 355.484375 C 463.753906 355.070312 465.777344 354.515625 467.738281 353.761719 C 475.625 350.765625 496.789062 332.34375 501.546875 326.21875 C 501.648438 326.121094 501.703125 326.042969 501.769531 325.960938 C 502.121094 325.484375 502.460938 324.949219 502.777344 324.398438 C 503.589844 322.984375 504.21875 321.378906 504.679688 319.734375 C 504.679688 319.71875 504.699219 319.71875 504.699219 319.695312 C 505.195312 317.953125 505.492188 316.167969 505.570312 314.519531 C 505.589844 313.988281 505.589844 313.46875 505.570312 312.972656 C 505.730469 312.894531 505.886719 312.835938 506.046875 312.734375 C 506.960938 312.238281 507.535156 311.464844 507.613281 310.355469 C 507.671875 309.703125 507.574219 308.949219 507.234375 308.054688 C 504.402344 300.261719 482.164062 291.675781 473.167969 289.855469 C 472.914062 289.792969 472.675781 289.757812 472.453125 289.714844 C 470.078125 289.320312 468.609375 290.230469 467.660156 291.957031 C 465.160156 296.417969 465.996094 306.292969 463.359375 313.132812 C 461.476562 318.070312 458.421875 322.273438 454.9375 325.527344 C 450.773438 329.351562 444.574219 329.769531 439.875 326.875 C 437.558594 330.027344 433.414062 336.550781 432.421875 343.867188 C 432.085938 346.34375 432.128906 348.921875 432.703125 351.5 " fill-opacity="1" fill-rule="nonzero"/><path fill="#4f2a4f" d="M 516.683594 320.757812 C 517.46875 320.757812 518.234375 320.355469 518.667969 319.632812 C 519.316406 318.539062 518.960938 317.125 517.867188 316.472656 L 434.390625 266.769531 C 433.289062 266.117188 431.882812 266.480469 431.230469 267.574219 C 430.578125 268.667969 430.933594 270.082031 432.03125 270.734375 L 515.507812 320.433594 C 515.875 320.65625 516.28125 320.757812 516.683594 320.757812 " fill-opacity="1" fill-rule="nonzero"/><path fill="#492749" d="M 517.863281 316.472656 L 524.40625 323.015625 L 515.503906 320.4375 C 517.890625 319 518.675781 317.679688 517.863281 316.472656 " fill-opacity="1" fill-rule="nonzero"/><path fill="#ff998c" d="M 505.335938 309.011719 C 505.335938 309.011719 507.433594 314.996094 504.6875 319.742188 C 501.949219 324.488281 496.78125 313.136719 496.78125 313.136719 C 496.78125 313.136719 500.742188 303.988281 505.335938 309.011719 " fill-opacity="1" fill-rule="nonzero"/></svg>